<svg xmlns="http://www.w3.org/2000/svg" xmlns:xlink="http://www.w3.org/1999/xlink" version="1.1" x="0px" y="0px" viewBox="0 0 65 81.25" enable-background="new 0 0 65 65" xml:space="preserve"><path d="M47.753,60.42c-7.328,0-10.842-2.938-12.499-5.402c-2.417-3.596-2.708-8.748-0.861-14.349c-1.257-0.086-2.532-0.086-3.787,0  c1.846,5.602,1.555,10.754-0.863,14.35c-1.657,2.464-5.17,5.401-12.496,5.401c-0.536,0-1.031-0.286-1.299-0.75  c-3.663-6.345-2.876-10.856-1.57-13.523c1.904-3.891,6.221-6.72,11.995-7.922c-0.555-1.131-1.192-2.234-1.894-3.28  c-3.689,4.124-8.025,6.453-12.113,6.453c-3.178,0-7.783-1.413-11.671-8.147c-0.268-0.464-0.268-1.036,0-1.5  c3.888-6.734,8.493-8.148,11.671-8.148c4.087,0,8.424,2.33,12.112,6.454c0.702-1.046,1.339-2.149,1.895-3.28  c-5.774-1.202-10.091-4.03-11.996-7.921c-1.306-2.667-2.093-7.179,1.571-13.525c0.268-0.464,0.763-0.75,1.299-0.75  c7.328,0,10.841,2.938,12.499,5.403c2.417,3.595,2.708,8.748,0.862,14.349c1.256,0.084,2.534,0.084,3.787,0  c-1.846-5.602-1.554-10.755,0.863-14.35c1.657-2.464,5.171-5.401,12.496-5.401c0.536,0,1.031,0.286,1.299,0.75  c3.663,6.345,2.876,10.856,1.57,13.524c-1.904,3.891-6.221,6.72-11.994,7.922c0.555,1.13,1.192,2.234,1.894,3.28  c3.689-4.124,8.025-6.453,12.112-6.453c3.179,0,7.784,1.414,11.672,8.148c0.269,0.464,0.269,1.036,0,1.5  c-3.888,6.734-8.493,8.147-11.671,8.147c-4.088,0-8.425-2.329-12.113-6.454c-0.702,1.046-1.339,2.149-1.895,3.281  c5.774,1.201,10.091,4.029,11.995,7.92c1.307,2.668,2.094,7.18-1.57,13.525C48.784,60.134,48.289,60.42,47.753,60.42z   M37.435,41.048c-1.729,4.877-1.63,9.412,0.309,12.295c1.707,2.539,4.778,3.903,9.135,4.062c2.041-3.853,2.395-7.193,1.05-9.94  C46.4,44.343,42.522,41.989,37.435,41.048z M27.564,41.049c-5.087,0.941-8.964,3.296-10.492,6.417  c-1.344,2.746-0.991,6.087,1.05,9.938c4.355-0.158,7.425-1.522,9.132-4.061C29.192,50.461,29.292,45.926,27.564,41.049z   M42.369,32.5c3.202,3.763,6.897,5.898,10.266,5.898c3.271,0,6.169-1.983,8.622-5.897c-2.453-3.915-5.352-5.898-8.623-5.898  C49.267,26.602,45.572,28.737,42.369,32.5z M3.743,32.5c2.454,3.914,5.351,5.897,8.622,5.897c3.368,0,7.063-2.135,10.265-5.897  c-3.202-3.763-6.896-5.898-10.265-5.898C9.094,26.602,6.197,28.585,3.743,32.5z M26.434,32.5c1.172,1.636,2.203,3.421,3.033,5.253  c2-0.196,4.063-0.197,6.066,0c0.831-1.833,1.862-3.619,3.033-5.255c-1.171-1.636-2.202-3.421-3.032-5.252  c-1.999,0.198-4.063,0.198-6.066,0C28.636,29.079,27.605,30.865,26.434,32.5z M18.122,7.595c-2.041,3.853-2.395,7.194-1.05,9.941  c1.527,3.121,5.405,5.474,10.493,6.416c1.729-4.877,1.63-9.412-0.309-12.295C25.549,9.118,22.479,7.754,18.122,7.595z M46.878,7.595  c-4.355,0.159-7.425,1.522-9.132,4.06c-1.938,2.884-2.039,7.418-0.311,12.296c5.088-0.942,8.965-3.296,10.492-6.417  C49.272,14.788,48.919,11.447,46.878,7.595z"/><text x="0" y="80" fill="#000000" font-size="5px" font-weight="bold" font-family="'Helvetica Neue', Helvetica, Arial-Unicode, Arial, Sans-serif"></text><text x="0" y="85" fill="#000000" font-size="5px" font-weight="bold" font-family="'Helvetica Neue', Helvetica, Arial-Unicode, Arial, Sans-serif">from the Noun Project</text></svg>