<?xml version="1.0" encoding="UTF-8"?>
<svg width="700pt" height="700pt" version="1.1" viewBox="0 0 700 700" xmlns="http://www.w3.org/2000/svg">
 <g>
  <path d="m547.75 17.5h-395.5c-36.75 0-64.75 28-64.75 64.75v397.25c0 35 28 64.75 64.75 64.75h397.25c35 0 64.75-28 64.75-64.75v-397.25c-1.75-36.75-29.75-64.75-66.5-64.75zm-395.5 35h397.25c15.75 0 28 12.25 28 29.75v61.25h-455v-61.25c0-17.5 12.25-29.75 29.75-29.75zm395.5 455h-395.5c-17.5 0-29.75-12.25-29.75-29.75v-299.25h455v301c0 15.75-12.25 28-29.75 28z"/>
  <path d="m157.5 122.5c10.5 0 17.5-7 17.5-17.5s-7-17.5-17.5-17.5-17.5 7-17.5 17.5 7 17.5 17.5 17.5z"/>
  <path d="m220.5 122.5c10.5 0 17.5-7 17.5-17.5s-7-17.5-17.5-17.5-17.5 7-17.5 17.5 7 17.5 17.5 17.5z"/>
  <path d="m281.75 122.5c10.5 0 17.5-7 17.5-17.5s-7-17.5-17.5-17.5-17.5 7-17.5 17.5 8.75 17.5 17.5 17.5z"/>
 </g>
</svg>
