<?xml version="1.0" encoding="utf-8"?>
<!-- Generator: Adobe Illustrator 25.1.0, SVG Export Plug-In . SVG Version: 6.00 Build 0)  -->
<svg version="1.1" id="Layer_1" xmlns="http://www.w3.org/2000/svg" xmlns:xlink="http://www.w3.org/1999/xlink" x="0px" y="0px"
	 viewBox="0 0 700 450" style="enable-background:new 0 0 700 450;" xml:space="preserve">
<style type="text/css">
	.st0{fill-rule:evenodd;clip-rule:evenodd;}
</style>
<g>
	<path class="st0" d="M198.1,130h303.8c57.8,0,104.8,47.1,104.8,105c0,57.9-47.1,105-104.8,105H198.1c-57.8,0-104.8-47.1-104.8-105
		C93.3,177.1,140.4,130,198.1,130z M198.1,363.3h303.8c70.6,0,128.1-57.6,128.1-128.3c0-70.8-57.4-128.3-128.1-128.3H198.1
		C127.6,106.7,70,164.2,70,235C70,305.8,127.4,363.3,198.1,363.3L198.1,363.3z"/>
	<path class="st0" d="M210,351.7v11.7h23.3V106.7H210V351.7z"/>
	<path class="st0" d="M466.7,351.7v11.7H490V106.7h-23.3V351.7z"/>
	<path class="st0" d="M560,211.7c0,6.4-5.2,11.7-11.7,11.7c-6.4,0-11.7-5.2-11.7-11.7c0-6.4,5.2-11.7,11.7-11.7
		C554.8,200,560,205.2,560,211.7"/>
	<path class="st0" d="M536.7,235c0,6.4-5.2,11.7-11.7,11.7s-11.7-5.2-11.7-11.7s5.2-11.7,11.7-11.7S536.7,228.6,536.7,235"/>
	<path class="st0" d="M583.3,235c0,6.4-5.2,11.7-11.7,11.7c-6.4,0-11.7-5.2-11.7-11.7s5.2-11.7,11.7-11.7
		C578.1,223.3,583.3,228.6,583.3,235"/>
	<path class="st0" d="M560,258.3c0,6.4-5.2,11.7-11.7,11.7c-6.4,0-11.7-5.2-11.7-11.7c0-6.4,5.2-11.7,11.7-11.7
		C554.8,246.7,560,251.9,560,258.3"/>
	<path class="st0" d="M186.7,200c0,12.9-10.4,23.3-23.3,23.3S140,212.9,140,200s10.4-23.3,23.3-23.3S186.7,187.1,186.7,200"/>
	<path class="st0" d="M186.7,270c0,12.9-10.4,23.3-23.3,23.3S140,282.9,140,270s10.4-23.3,23.3-23.3S186.7,257.1,186.7,270"/>
</g>
</svg>
