<?xml version="1.0" encoding="utf-8"?>
<!-- Generator: Adobe Illustrator 25.1.0, SVG Export Plug-In . SVG Version: 6.00 Build 0)  -->
<svg version="1.1" id="Layer_1" xmlns="http://www.w3.org/2000/svg" xmlns:xlink="http://www.w3.org/1999/xlink" x="0px" y="0px"
	 viewBox="0 0 700 568" style="enable-background:new 0 0 700 568;" xml:space="preserve">
<symbol  id="a" viewBox="-12.1 -12.6 24.2 25.1">
	<path d="M0.4,1.2c-1.6,0-2.8,0.3-3.6,0.8C-4,2.5-4.4,3.3-4.4,4.4c0,1,0.3,1.7,1,2.3c0.6,0.5,1.5,0.8,2.7,0.8c1.4,0,2.6-0.5,3.6-1.5
		c1-1,1.5-2.3,1.5-3.9V1.2L0.4,1.2z M12.1-1.7v13.7H4.4V8.4c-1,1.4-2.2,2.5-3.5,3.2c-1.3,0.7-2.8,1-4.7,1c-2.5,0-4.5-0.7-6-2.2
		c-1.5-1.4-2.3-3.3-2.3-5.6c0-2.8,1-4.9,2.9-6.2c1.9-1.3,5-2,9.1-2h4.5V-4c0-1.2-0.5-2.1-1.4-2.7C2-7.2,0.5-7.5-1.5-7.5
		c-1.6,0-3.2,0.2-4.6,0.5C-7.5-6.7-8.8-6.2-10-5.5v-5.8c1.6-0.4,3.3-0.7,4.9-0.9c1.7-0.2,3.3-0.3,5-0.3c4.3,0,7.4,0.9,9.3,2.6
		C11.1-8.3,12.1-5.5,12.1-1.7L12.1-1.7z"/>
</symbol>
<symbol  id="b" viewBox="-12.8 -12.6 25.7 25.1">
	<path d="M12.8-0.1v2.2H-5c0.2,1.8,0.8,3.1,1.9,4C-2,7-0.4,7.5,1.6,7.5c1.6,0,3.3-0.2,4.9-0.7c1.7-0.5,3.4-1.2,5.2-2.2v5.9
		c-1.8,0.7-3.6,1.2-5.4,1.5c-1.8,0.4-3.6,0.5-5.4,0.5c-4.3,0-7.7-1.1-10.1-3.3C-11.6,7.1-12.8,4-12.8,0c0-3.9,1.2-7,3.5-9.2
		c2.4-2.2,5.6-3.4,9.7-3.4c3.8,0,6.8,1.1,9,3.4C11.7-6.9,12.8-3.9,12.8-0.1L12.8-0.1z M5-2.6c0-1.5-0.4-2.6-1.3-3.5
		C2.9-7,1.8-7.5,0.4-7.5c-1.5,0-2.7,0.4-3.6,1.2c-0.9,0.8-1.5,2-1.7,3.6H5z"/>
</symbol>
<symbol  id="c" viewBox="-8.9 -12.3 17.8 24.5">
	<path d="M8.9-5.2c-0.7-0.3-1.4-0.5-2-0.7C6.2-6,5.6-6.1,4.9-6.1c-2,0-3.5,0.6-4.5,1.9c-1.1,1.3-1.6,3.1-1.6,5.4v11h-7.7v-23.9h7.7
		v3.9c1-1.6,2.1-2.7,3.4-3.4c1.3-0.7,2.8-1.1,4.6-1.1c0.2,0,0.5,0,0.8,0c0.3,0,0.7,0.1,1.3,0.1L8.9-5.2z"/>
</symbol>
<symbol  id="d" viewBox="-4.1 -15.9 8.2 31.9">
	<path d="M-4.1-15.9h8.2v31.9h-8.2V-15.9z"/>
</symbol>
<symbol  id="e" viewBox="-13.6 -16.7 27.2 33.4">
	<path d="M-13.6-16.7h7.7L0.5-0.4l5.5-16.2h7.7L3.5,9.5c-1,2.7-2.2,4.5-3.5,5.6c-1.3,1.1-3.1,1.6-5.3,1.6h-4.4v-5h2.4
		c1.3,0,2.2-0.2,2.8-0.6c0.6-0.4,1.1-1.1,1.4-2.2l0.2-0.7L-13.6-16.7z"/>
</symbol>
<symbol  id="f" viewBox="-12.8 -16.9 25.7 33.9">
	<path d="M-0.1,11.4c1.6,0,2.9-0.6,3.8-1.8c0.9-1.2,1.3-2.9,1.3-5.2c0-2.3-0.4-4-1.3-5.2C2.8-2,1.5-2.6-0.1-2.6
		C-1.7-2.6-3-2-3.9-0.8c-0.9,1.2-1.3,2.9-1.3,5.2c0,2.3,0.4,4,1.3,5.2C-3,10.8-1.7,11.4-0.1,11.4L-0.1,11.4z M-5.2-4.1
		C-4.1-5.5-3-6.5-1.7-7.2c1.3-0.7,2.8-1,4.4-1C5.7-8.2,8.1-7,10-4.7c1.9,2.3,2.8,5.4,2.8,9s-0.9,6.7-2.8,9c-1.9,2.3-4.3,3.5-7.3,3.5
		c-1.7,0-3.1-0.3-4.4-1s-2.4-1.7-3.5-3.1v3.5h-7.7v-33.2h7.7V-4.1z"/>
</symbol>
<symbol  id="g" viewBox="-12.8 -16.9 25.7 33.9">
	<path d="M5.1-4.1v-12.8h7.7v33.2H5.1v-3.5c-1.1,1.4-2.2,2.4-3.5,3.1c-1.3,0.7-2.7,1-4.4,1c-2.9,0-5.4-1.2-7.3-3.5
		c-1.9-2.3-2.8-5.4-2.8-9s0.9-6.7,2.8-9C-8.1-7-5.7-8.2-2.7-8.2c1.7,0,3.1,0.3,4.4,1C2.9-6.5,4.1-5.5,5.1-4.1L5.1-4.1z M0.1,11.4
		c1.6,0,2.9-0.6,3.8-1.8c0.9-1.2,1.3-2.9,1.3-5.2c0-2.3-0.4-4-1.3-5.2C3-2,1.7-2.6,0.1-2.6c-1.6,0-2.9,0.6-3.7,1.8
		c-0.9,1.2-1.3,2.9-1.3,5.2c0,2.3,0.4,4,1.3,5.2C-2.8,10.8-1.5,11.4,0.1,11.4z"/>
</symbol>
<symbol  id="h" viewBox="-9.7 -15.4 19.3 30.7">
	<path d="M1.8-15.4v6.8h7.9v5.5H1.8V7c0,1.1,0.2,1.9,0.7,2.3c0.4,0.4,1.3,0.6,2.6,0.6H9v5.5H2.4c-3,0-5.2-0.6-6.4-1.9
		c-1.3-1.3-1.9-3.4-1.9-6.4V-3.1h-3.8v-5.5h3.8v-6.8L1.8-15.4z"/>
</symbol>
<symbol  id="i" viewBox="-10.9 -12.6 21.7 25.1">
	<path d="M9.2-11.2v5.8C7.6-6.1,6-6.6,4.5-7C3-7.3,1.5-7.5,0.2-7.5c-1.5,0-2.5,0.2-3.2,0.5c-0.7,0.4-1,0.9-1,1.7
		c0,0.6,0.3,1.1,0.8,1.4c0.5,0.3,1.5,0.6,2.9,0.7l1.3,0.2c3.9,0.5,6.6,1.3,7.9,2.5c1.4,1.1,2,2.9,2,5.4c0,2.6-0.9,4.5-2.8,5.8
		c-1.9,1.3-4.7,1.9-8.4,1.9c-1.6,0-3.2-0.1-4.9-0.4s-3.4-0.6-5.2-1.1V5.3C-9,6-7.4,6.5-5.8,6.9c1.6,0.4,3.2,0.5,4.9,0.5
		c1.5,0,2.6-0.2,3.4-0.6c0.8-0.4,1.1-1,1.1-1.8c0-0.7-0.3-1.2-0.8-1.5C2.3,3.2,1.2,2.9-0.3,2.7l-1.3-0.2c-3.4-0.4-5.8-1.2-7.2-2.4
		c-1.4-1.2-2-2.9-2-5.3c0-2.5,0.9-4.4,2.6-5.6c1.7-1.2,4.4-1.8,8-1.8c1.4,0,2.9,0.1,4.4,0.3C5.7-12,7.4-11.7,9.2-11.2L9.2-11.2z"/>
</symbol>
<symbol  id="j" viewBox="-3.8 -16.6 7.7 33.2">
	<path d="M-3.8-7.3h7.7v23.9h-7.7L-3.8-7.3z M-3.8-16.6h7.7v6.2h-7.7L-3.8-16.6z"/>
</symbol>
<symbol  id="k" viewBox="-12 -12.3 24 24.5">
	<path d="M-12,2.3v-14.6h7.7v2.4c0,1.3,0,2.9,0,4.9c0,2,0,3.3,0,3.9c0,1.9,0,3.3,0.1,4.2C-4.1,3.9-4,4.5-3.7,4.9
		C-3.4,5.4-3,5.8-2.5,6.1C-2,6.3-1.4,6.5-0.7,6.5c1.6,0,2.8-0.6,3.7-1.8c0.9-1.2,1.4-2.9,1.4-5.1v-11.8H12v23.9H4.4V8.2
		C3.2,9.6,2,10.6,0.7,11.3c-1.3,0.7-2.7,1-4.2,1c-2.8,0-4.9-0.8-6.3-2.5C-11.3,8-12,5.6-12,2.3L-12,2.3z"/>
</symbol>
<symbol  id="l" viewBox="-17.7 -15.9 35.5 31.9">
	<path d="M-17.7-15.9h10.5L0,1.1l7.3-17.1h10.5v31.9H10V-7.4L2.6,9.8h-5.2L-9.9-7.4v23.3h-7.8V-15.9z"/>
</symbol>
<symbol  id="m" viewBox="-18.7 -12 37.4 23.9">
	<path d="M-18.7-12h7.4l4,16.5l4-16.5h6.4l4,16.3l4-16.3h7.4L12.4,12H4L0-4.5L-4,12h-8.3L-18.7-12z"/>
</symbol>
<symbol  id="n" viewBox="-10.7 -12 21.4 23.9">
	<path d="M-10.2-12h20.9v5.3L-1.9,6.5h12.6V12h-21.4V6.6L1.9-6.5h-12.1L-10.2-12z"/>
</symbol>
<symbol  id="o" viewBox="-13.6 -16.5 27.1 33.1">
	<path d="M13.6,14.2c-1.5,0.8-3.1,1.4-4.7,1.8c-1.6,0.4-3.3,0.6-5.1,0.6c-5.3,0-9.5-1.5-12.6-4.5c-3.1-3-4.7-7-4.7-12.1
		s1.6-9.1,4.7-12.1c3.1-3,7.3-4.5,12.6-4.5c1.8,0,3.5,0.2,5.1,0.6c1.6,0.4,3.2,1,4.7,1.8v6.6c-1.5-1-3-1.8-4.5-2.3
		c-1.5-0.5-3-0.7-4.7-0.7c-2.9,0-5.2,0.9-6.9,2.8C-4.2-5.9-5.1-3.3-5.1,0c0,3.3,0.8,5.9,2.5,7.8c1.7,1.9,4,2.8,6.9,2.8
		c1.6,0,3.2-0.2,4.7-0.7c1.5-0.5,3-1.3,4.5-2.3V14.2z"/>
</symbol>
<g>
	<path d="M624.4,106.3c-5-6.4-12.5-10.1-20.7-10.1H391.8L389,84.9c-3.3-13.2-16.6-23.6-30.2-23.6h-35c-13.6,0-26.9,10.4-30.2,23.6
		l-2.8,11.4H175c-7,0-13.6,2.7-18.6,7.7l-35,35c-5,5-7.7,11.6-7.7,18.6v35c0,8.3,3.9,15.8,10,20.6L78.4,266
		c-6.1,7.1-9,16.1-8.3,25.5c0.7,9.3,5,17.8,12.1,23.9c4.3,3.6,9.3,6.1,14.7,7.4c5.4,33.7,45.4,59.1,87.7,86
		c11.6,7.4,23.3,14.8,34.5,22.5c0.1,0.5,0.3,1,0.6,1.5c4,8-7.1,24.8-15.9,33.7c-2.7,2.7-3.3,6.7-1.6,10.1
		c0.5,0.9,11.4,22.3,34.1,22.3c19.3,0,35-15.7,35-35V455c0-2.3-0.9-4.6-2.6-6.2c-20.4-20.4-48-38-74.7-54.9
		c-37.7-23.9-73.3-46.7-79.3-71.7c6.5-1.9,12.4-5.5,16.9-10.7l79.5-92.8h214.1L384.7,266c-6.1,7.1-9,16.1-8.3,25.5
		c0.7,9.3,5,17.8,12.1,23.9c4.3,3.6,9.3,6.1,14.7,7.4c5.4,33.7,45.4,59.1,87.7,86c11.6,7.4,23.3,14.8,34.5,22.5
		c0.1,0.5,0.3,1,0.6,1.5c4,8-7.1,24.8-15.9,33.7c-2.7,2.7-3.3,6.7-1.6,10.1c0.4,0.9,11.4,22.4,34.1,22.4c19.3,0,35-15.7,35-35V455
		c0-2.3-0.9-4.6-2.6-6.2c-20.4-20.4-48-38-74.7-54.9c-37.7-23.9-73.3-46.7-79.3-71.7c6.5-1.9,12.4-5.5,16.9-10.7l79.5-92.8h68.9
		c12.1,0,22.5-8.2,25.5-19.9l17.5-70C631.2,121,629.4,112.8,624.4,106.3L624.4,106.3z M237.1,444.4c5.9,4.6,11.5,9.4,16.7,14.3v5.1
		c0,9.7-7.8,17.5-17.5,17.5c-6.9,0-12.1-4.4-15.1-8C226.5,466.9,234.4,456,237.1,444.4L237.1,444.4z M543.3,444.4
		c5.9,4.6,11.5,9.4,16.7,14.3v5.1c0,9.7-7.8,17.5-17.5,17.5c-6.9,0-12.1-4.4-15.1-8C532.7,466.9,540.6,456,543.3,444.4L543.3,444.4z
		 M310.5,89.1c1.4-5.4,7.7-10.4,13.3-10.4h35c5.6,0,11.9,4.9,13.3,10.4l1.8,7.1h-65.1L310.5,89.1z M131.2,192.5v-26.2h32.7
		l-28.6,33.4C132.9,198.1,131.2,195.5,131.2,192.5L131.2,192.5z M118.3,300.1c-6,7.1-17.6,8-24.7,1.9c-3.5-3-5.7-7.3-6-11.9
		c-0.4-4.7,1.1-9.2,4.1-12.7l105-122.5c3.3-3.9,8.2-6.1,13.3-6.1c4.2,0,8.2,1.5,11.4,4.2c3.5,3,5.7,7.3,6,11.9
		c0.4,4.7-1.1,9.2-4.2,12.7L118.3,300.1z M226.1,201.2l10.5-12.2c5.5-6.4,8.3-14.4,8.3-22.8H280v8.8c0,4.8,3.9,8.8,8.8,8.8h105
		c4.8,0,8.8-3.9,8.8-8.8v-8.8h67.7l-30,35H226.1z M350,148.7v17.5h-17.5v-17.5H350z M385,148.7v17.5h-17.5v-17.5H385z M315,166.2
		h-17.5v-17.5H315V166.2z M424.5,300.1c-6,7.1-17.6,8-24.7,1.9c-3.5-3-5.7-7.3-6-11.9c-0.4-4.7,1.1-9.2,4.1-12.7l105-122.5
		c3.3-3.9,8.2-6.1,13.3-6.1c4.2,0,8.2,1.5,11.4,4.2c3.5,3,5.7,7.3,6,11.9c0.4,4.7-1.1,9.2-4.2,12.7L424.5,300.1z M612.2,124.6
		l-17.5,70c-1,3.9-4.5,6.6-8.5,6.6h-53.9l10.5-12.2c6.1-7.1,9-16.2,8.3-25.5c-0.7-9.3-5-17.8-12.1-23.9c-6.3-5.4-14.4-8.4-22.8-8.4
		c-10.2,0-19.9,4.5-26.6,12.2l-4.5,5.3h-82.7V140c0-4.8-3.9-8.8-8.8-8.8h-105c-4.8,0-8.8,3.9-8.8,8.8v8.8h-39.8
		c-2-3.4-4.3-6.5-7.4-9.1c-6.3-5.4-14.4-8.4-22.8-8.4c-10.2,0-19.9,4.5-26.6,12.2l-4.5,5.3h-42.5l32.4-32.4c1.6-1.6,3.9-2.6,6.2-2.6
		h428.8c2.7,0,5.2,1.2,6.9,3.4C612.3,119.3,612.9,122,612.2,124.6L612.2,124.6z"/>
	
		<use xlink:href="#o"  width="27.1" height="33.1" x="-13.6" y="-16.5" transform="matrix(1 0 0 1 85.7415 675.3279)" style="overflow:visible;"/>
	
		<use xlink:href="#c"  width="17.8" height="24.5" x="-8.9" y="-12.3" transform="matrix(1 0 0 1 114.6718 679.0005)" style="overflow:visible;"/>
	
		<use xlink:href="#b"  width="25.7" height="25.1" x="-12.8" y="-12.6" transform="matrix(1 0 0 1 138.4018 679.3127)" style="overflow:visible;"/>
	
		<use xlink:href="#a"  width="24.2" height="25.1" x="-12.1" y="-12.6" transform="matrix(1 0 0 1 167.3329 679.3119)" style="overflow:visible;"/>
	
		<use xlink:href="#h"  width="19.3" height="30.7" x="-9.7" y="-15.4" transform="matrix(1 0 0 1 193.1208 675.8906)" style="overflow:visible;"/>
	<g>
		<defs>
			<rect id="SVGID_1_" x="203.8" y="691.2" width="700" height="700"/>
		</defs>
		<clipPath id="SVGID_2_">
			<use xlink:href="#SVGID_1_"  style="overflow:visible;"/>
		</clipPath>
		<g style="clip-path:url(#SVGID_2_);">
			
				<use xlink:href="#b"  width="25.7" height="25.1" x="-12.8" y="-12.6" transform="matrix(1 0 0 1 218.5112 679.3127)" style="overflow:visible;"/>
		</g>
	</g>
	
		<use xlink:href="#g"  width="25.7" height="33.9" x="-12.8" y="-16.9" transform="matrix(1 0 0 1 248.2694 674.9456)" style="overflow:visible;"/>
	
		<use xlink:href="#f"  width="25.7" height="33.9" x="-12.8" y="-16.9" transform="matrix(1 0 0 1 296.5272 674.9459)" style="overflow:visible;"/>
	
		<use xlink:href="#e"  width="27.2" height="33.4" x="-13.6" y="-16.7" transform="matrix(1 0 0 1 325.4609 684.0079)" style="overflow:visible;"/>
	
		<use xlink:href="#d"  width="8.2" height="31.9" x="-4.1" y="-15.9" transform="matrix(1 0 0 1 363.2031 675.3045)" style="overflow:visible;"/>
	
		<use xlink:href="#n"  width="21.4" height="23.9" x="-10.7" y="-12" transform="matrix(1 0 0 1 384.0314 679.2888)" style="overflow:visible;"/>
	
		<use xlink:href="#m"  width="37.4" height="23.9" x="-18.7" y="-12" transform="matrix(1 0 0 1 417.039 679.289)" style="overflow:visible;"/>
	<g>
		<defs>
			<rect id="SVGID_3_" x="437.2" y="691.2" width="700" height="700"/>
		</defs>
		<clipPath id="SVGID_4_">
			<use xlink:href="#SVGID_3_"  style="overflow:visible;"/>
		</clipPath>
		<g style="clip-path:url(#SVGID_4_);">
			
				<use xlink:href="#a"  width="24.2" height="25.1" x="-12.1" y="-12.6" transform="matrix(1 0 0 1 451.2157 679.3119)" style="overflow:visible;"/>
		</g>
	</g>
	<g>
		<defs>
			<rect id="SVGID_5_" x="466.8" y="691.2" width="700" height="700"/>
		</defs>
		<clipPath id="SVGID_6_">
			<use xlink:href="#SVGID_5_"  style="overflow:visible;"/>
		</clipPath>
		<g style="clip-path:url(#SVGID_6_);">
			
				<use xlink:href="#c"  width="17.8" height="24.5" x="-8.9" y="-12.3" transform="matrix(1 0 0 1 479.3241 679.0005)" style="overflow:visible;"/>
		</g>
	</g>
	
		<use xlink:href="#l"  width="35.5" height="31.9" x="-17.7" y="-15.9" transform="matrix(1 0 0 1 525.3282 675.3045)" style="overflow:visible;"/>
	
		<use xlink:href="#k"  width="24" height="24.5" x="-12" y="-12.3" transform="matrix(1 0 0 1 562.5508 679.6022)" style="overflow:visible;"/>
	
		<use xlink:href="#j"  width="7.7" height="33.2" x="-3.8" y="-16.6" transform="matrix(1 0 0 1 585.75 674.6328)" style="overflow:visible;"/>
	
		<use xlink:href="#i"  width="21.7" height="25.1" x="-10.9" y="-12.6" transform="matrix(1 0 0 1 606.3668 679.3126)" style="overflow:visible;"/>
</g>
</svg>
