<?xml version="1.0" encoding="utf-8"?>
<!-- Generator: Adobe Illustrator 25.1.0, SVG Export Plug-In . SVG Version: 6.00 Build 0)  -->
<svg version="1.1" id="Layer_1" xmlns="http://www.w3.org/2000/svg" xmlns:xlink="http://www.w3.org/1999/xlink" x="0px" y="0px"
	 viewBox="0 0 90 90" style="enable-background:new 0 0 90 90;" xml:space="preserve">
<path d="M83.6,16.5H6.4c-0.6,0-1,0.4-1,1v4.9c0,0.6,0.4,1,1,1h2.3v36.1c0,0.6,0.4,1,1,1h1.5v12.1c0,0.6,0.4,1,1,1h4c0.6,0,1-0.4,1-1
	V60.4h13.4c0.6,0,1-0.4,1-1V39.7h26.7v19.7c0,0.6,0.4,1,1,1h13.4v12.1c0,0.6,0.4,1,1,1h4c0.6,0,1-0.4,1-1V60.4h1.5c0.6,0,1-0.4,1-1
	V23.3h2.3c0.6,0,1-0.4,1-1v-4.9C84.6,16.9,84.2,16.5,83.6,16.5z M15.3,71.5h-2V60.4h2V71.5z M29.6,58.4h-19V43.8h19V58.4z
	 M29.6,41.8h-19V23.3h19V41.8z M58.4,37.7H31.6v-6.4h26.7V37.7z M58.4,29.3H31.6v-5.9h26.7V29.3z M76.8,71.5h-2V60.4h2V71.5z
	 M79.3,58.4h-19V43.8h19V58.4z M79.3,41.8h-19V23.3h19V41.8z M82.6,21.3H7.4v-2.9h75.2V21.3z"/>
<path d="M17,35.7h6.4c0.6,0,1-0.4,1-1v-4c0-0.6-0.4-1-1-1H17c-0.6,0-1,0.4-1,1v4C16,35.2,16.4,35.7,17,35.7z M18,31.7h4.4v2H18V31.7
	z"/>
<path d="M66.6,35.7H73c0.6,0,1-0.4,1-1v-4c0-0.6-0.4-1-1-1h-6.4c-0.6,0-1,0.4-1,1v4C65.6,35.2,66.1,35.7,66.6,35.7z M67.6,31.7H72v2
	h-4.4V31.7z"/>
<path d="M69.8,55.1c2.1,0,3.9-1.7,3.9-3.9s-1.7-3.9-3.9-3.9S66,49.1,66,51.2S67.7,55.1,69.8,55.1z M69.8,49.4c1,0,1.9,0.8,1.9,1.9
	s-0.8,1.9-1.9,1.9S68,52.3,68,51.2S68.8,49.4,69.8,49.4z"/>
<path d="M20.2,55.1c2.1,0,3.9-1.7,3.9-3.9s-1.7-3.9-3.9-3.9s-3.9,1.7-3.9,3.9S18,55.1,20.2,55.1z M20.2,49.4c1,0,1.9,0.8,1.9,1.9
	s-0.8,1.9-1.9,1.9s-1.9-0.8-1.9-1.9S19.1,49.4,20.2,49.4z"/>
</svg>
