<?xml version="1.0" encoding="utf-8"?>
<!-- Generator: Adobe Illustrator 25.1.0, SVG Export Plug-In . SVG Version: 6.00 Build 0)  -->
<svg version="1.1"
	 id="Layer_1" xmlns:cc="http://creativecommons.org/ns#" xmlns:dc="http://purl.org/dc/elements/1.1/" xmlns:inkscape="http://www.inkscape.org/namespaces/inkscape" xmlns:rdf="http://www.w3.org/1999/02/22-rdf-syntax-ns#" xmlns:sodipodi="http://sodipodi.sourceforge.net/DTD/sodipodi-0.dtd" xmlns:svg="http://www.w3.org/2000/svg"
	 xmlns="http://www.w3.org/2000/svg" xmlns:xlink="http://www.w3.org/1999/xlink" x="0px" y="0px" viewBox="0 0 100 99.9"
	 style="enable-background:new 0 0 100 99.9;" xml:space="preserve">
<g transform="translate(0,-952.36218)">
	<path d="M49.8,958.3c-1,0.1-1.8,1-1.8,2V972c0,1.1,0.9,2,2,2c1.1,0,2-0.9,2-2c0,0,0,0,0-0.1v-11.7c0-1.1-0.9-2-2-2
		C50,958.3,49.9,958.3,49.8,958.3z M34.4,969.1c-1.1,0.1-1.9,1.1-1.7,2.2c0,0.3,0.1,0.5,0.3,0.8l2.8,4.9c0.5,1,1.7,1.4,2.7,1
		c1-0.5,1.4-1.7,1-2.7c0-0.1-0.1-0.2-0.2-0.3l-2.8-4.9C36,969.5,35.2,969,34.4,969.1z M65.2,969.1c-0.7,0.1-1.2,0.4-1.6,1l-2.8,4.9
		c-0.6,0.9-0.4,2.2,0.5,2.8s2.2,0.4,2.8-0.5c0.1-0.1,0.1-0.2,0.2-0.3l2.8-4.9c0.6-1,0.2-2.2-0.7-2.7C66,969.2,65.6,969.1,65.2,969.1
		z M50,979.7c-8,0-14.7,5.3-17,12.6c-0.3,1.1,0.3,2.2,1.3,2.5s2.2-0.3,2.5-1.3l0,0c1.7-5.7,6.9-9.8,13.1-9.8s11.4,4.1,13.1,9.8
		c0.3,1.1,1.4,1.7,2.5,1.3s1.7-1.4,1.3-2.5l0,0C64.7,985,58,979.7,50,979.7z M17.3,979.7c-1.1,0-2,1-1.9,2.1c0,0.7,0.4,1.3,1,1.7
		l10,5.8c1,0.6,2.2,0.2,2.8-0.7s0.2-2.2-0.7-2.8h0L18.5,980C18.1,979.8,17.7,979.7,17.3,979.7z M82.4,979.7c-0.3,0-0.6,0.1-0.9,0.3
		l-10.1,5.8c-1,0.6-1.3,1.8-0.7,2.8s1.8,1.3,2.8,0.7l10-5.8c1-0.5,1.3-1.7,0.8-2.7C84,980.1,83.2,979.7,82.4,979.7z M24.4,997.7
		c-0.9,0.1-1.6,0.7-1.8,1.5l-7.6,31.9c-0.2,1.1,0.4,2.1,1.5,2.4c0.1,0,0.3,0,0.4,0h66c1.1,0,2-0.9,2-2c0-0.2,0-0.3-0.1-0.5
		l-7.7-31.9c-0.2-0.9-1-1.5-1.9-1.5H24.7C24.6,997.7,24.5,997.7,24.4,997.7z M26.2,1001.7h13.2l-0.4,5.5h-5.5l0.3-1.7
		c0.2-1.1-0.5-2.1-1.6-2.3c-0.2,0-0.5,0-0.7,0c-0.9,0.1-1.5,0.8-1.7,1.7l-0.4,2.4h-4.6L26.2,1001.7z M43.4,1001.7h5v5.5H43
		L43.4,1001.7z M52.4,1001.7h4.2l0.4,5.5h-4.6V1001.7z M60.6,1001.7h13.2l3.8,15.9h-5.3l-2.1-12.7c-0.2-1.1-1.2-1.9-2.3-1.7
		c0,0,0,0,0,0c-1.1,0.2-1.8,1.2-1.6,2.3c0,0,0,0,0,0l0.3,1.7H61L60.6,1001.7z M23.9,1011.2h4.9l-3,18.3h-6.2L23.9,1011.2z
		 M32.8,1011.2h5.8l-0.5,6.3h-6.4L32.8,1011.2z M42.7,1011.2h5.8v6.3h-6.2L42.7,1011.2z M52.4,1011.2h4.9l0.5,6.3h-5.4V1011.2z
		 M61.3,1011.2h5.8l1,6.3h-6.4L61.3,1011.2z M31.2,1021.6h6.7l-0.3,4.1c-0.2,1.1,0.5,2.1,1.6,2.3c1.1,0.2,2.1-0.5,2.3-1.6
		c0-0.1,0-0.3,0-0.4l0.3-4.4h6.6v8H29.8L31.2,1021.6z M52.4,1021.6h5.8l0.3,4.4c0,1.1,0.9,2,2,2c1.1,0,2-0.9,2-2c0-0.1,0-0.3,0-0.4
		l-0.3-4.1h6.7l1.3,8H52.4V1021.6z M72.9,1021.6h5.6l1.9,8h-6.2L72.9,1021.6z M44.5,1035c-1,0.1-1.8,1-1.8,2v5.3h-3.2
		c-0.1,0-0.1,0-0.2,0c-1.1,0.1-2,1-1.9,2.1c0.1,1.1,1,2,2.1,1.9c0,0,0,0,0,0h21.2c1.1,0,2-0.9,2-2c0-1.1-0.9-2-2-2c0,0,0,0-0.1,0
		h-3.3v-5.3c0-1.1-0.9-2-2-2c-0.1,0-0.2,0-0.3,0c-1,0.1-1.8,1-1.8,2v5.3h-6.6v-5.3c0-1.1-0.9-2-2-2C44.6,1035,44.6,1035,44.5,1035z"
		/>
</g>
</svg>
