<?xml version="1.0" encoding="utf-8"?>
<!-- Generator: Adobe Illustrator 25.1.0, SVG Export Plug-In . SVG Version: 6.00 Build 0)  -->
<svg version="1.1" id="Layer_1" xmlns="http://www.w3.org/2000/svg" xmlns:xlink="http://www.w3.org/1999/xlink" x="0px" y="0px"
	 viewBox="0 0 100 99.9" style="enable-background:new 0 0 100 99.9;" xml:space="preserve">
<path d="M20.9,43.9c0.3,0.4,0.2,1.1-0.2,1.4c-4,3-6.3,7.6-6.3,12.6c0,3.1,0.9,6.1,2.6,8.6c0.3,0.5,0.2,1.1-0.3,1.4
	c-0.2,0.1-0.4,0.2-0.5,0.2c-0.3,0-0.6-0.2-0.8-0.5c-1.9-2.9-2.9-6.3-2.9-9.7c0-5.6,2.6-10.8,7.1-14.2C20,43.3,20.6,43.4,20.9,43.9z
	 M46.6,66.1c1.2,0,2.3-0.3,3.3-0.8c0.5-0.2,0.7-0.8,0.4-1.3c-0.2-0.5-0.8-0.7-1.3-0.4c-0.8,0.4-1.6,0.6-2.4,0.6
	c-2.7,0-4.9-2-5.3-4.6c1.4-0.3,2.7-0.8,3.8-1.6c0.4-0.3,0.6-0.9,0.2-1.4C45,56,44.4,55.9,44,56.2c-1.3,1-2.9,1.5-4.5,1.5
	c-4.3,0-7.8-3.5-7.8-7.8c0-1.6,0.5-3.2,1.5-4.5c0.3-0.4,0.2-1.1-0.2-1.4c-0.4-0.3-1.1-0.2-1.4,0.2c-1.2,1.7-1.8,3.6-1.8,5.7
	c0,5.4,4.3,9.7,9.7,9.8C39.8,63.3,42.9,66.1,46.6,66.1z M49.6,73.1c-0.1,0-0.2-0.1-0.4-0.1v-2.9c0-0.6-0.4-1-1-1s-1,0.4-1,1v2.5
	c-1.3-0.2-2.6-0.2-3.9,0c-0.5,0.1-0.9,0.6-0.8,1.1c0.1,0.5,0.6,0.9,1.1,0.8c1.8-0.3,3.6-0.1,5.4,0.5c3.7,1.2,6.5,4.1,7.6,7.8
	c0.1,0.4,0.5,0.7,1,0.7c0.1,0,0.2,0,0.3,0c0.5-0.2,0.8-0.7,0.7-1.2C57.2,78,53.8,74.5,49.6,73.1z M62.8,62.2c2.8-0.5,5-2.4,5.8-5.1
	c0.8-2.5,0.1-5.3-1.7-7.2c-0.4-0.4-1-0.4-1.4,0c-0.4,0.4-0.4,1,0,1.4c1.3,1.4,1.8,3.4,1.2,5.3c-0.6,2-2.2,3.4-4.3,3.8
	c-0.5,0.1-0.9,0.6-0.8,1.2c0.1,0.5,0.5,0.8,1,0.8C62.7,62.2,62.8,62.2,62.8,62.2z M80.5,82.5c-3.6-3.6-8.9-5.1-13.9-4.1l-2-12.4
	c-0.1-0.5-0.6-0.9-1.1-0.8c-0.5,0.1-0.9,0.6-0.8,1.1l4.6,28.6c0.1,0.5,0.5,0.8,1,0.8c0.1,0,0.1,0,0.2,0c0.5-0.1,0.9-0.6,0.8-1.1
	l-2.3-14.1c4.4-1,9,0.3,12.1,3.5c0.8,0.8,1.5,1.7,2,2.6c0.2,0.3,0.5,0.5,0.9,0.5c0.2,0,0.3,0,0.5-0.1c0.5-0.3,0.6-0.9,0.4-1.4
	C82.2,84.4,81.4,83.4,80.5,82.5z M25.6,69.8C14.4,69.6,4.1,75.6-1.1,85.6c-0.3,0.5-0.1,1.1,0.4,1.4C-0.5,87-0.4,87-0.2,87
	c0.4,0,0.7-0.2,0.9-0.5c4.9-9.3,14.4-14.9,24.9-14.7c0,0,0,0,0,0c0.5,0,1-0.4,1-1C26.6,70.3,26.2,69.8,25.6,69.8z M100.7,75.7
	c0.2,0.5,0,1.1-0.5,1.3c-0.1,0.1-0.3,0.1-0.4,0.1c-0.4,0-0.7-0.2-0.9-0.6C95.1,68.7,88.2,62.8,80,60.2c0.1,2.4-0.1,4.8-0.7,7.1
	c-0.1,0.5-0.5,0.8-1,0.8c-0.1,0-0.2,0-0.2,0c-0.5-0.1-0.9-0.7-0.7-1.2c0.6-2.3,0.8-4.8,0.6-7.2c-0.7-7.8-5.4-14.7-12.4-18.1
	c-0.5-0.2-0.7-0.8-0.5-1.3s0.8-0.7,1.3-0.5c1.6,0.8,3.1,1.7,4.4,2.8L69.1,37H38.4l-2.2,13.5c-0.1,0.5-0.5,0.8-1,0.8
	c-0.1,0-0.1,0-0.2,0c-0.5-0.1-0.9-0.6-0.8-1.1L36.4,37H24.2c-0.3,0-0.6-0.2-0.8-0.4c-0.2-0.3-0.2-0.6-0.1-0.9l7-21
	c0.1-0.4,0.5-0.7,0.9-0.7h34c0.4,0,0.8,0.3,0.9,0.7l7,21c0.1,0.3,0.1,0.6-0.1,0.9c-0.2,0.3-0.5,0.4-0.8,0.4h-1l2.8,8.4
	c3.1,3.5,5.2,7.9,5.9,12.7C88.9,60.7,96.5,67.1,100.7,75.7z M64.5,16h-4.9l3.8,19h7.4L64.5,16z M42.5,35l1.3-19h-4.9L35,35H42.5z
	 M44.5,35h7.5l-1.3-19h-4.9L44.5,35z M53.9,35h7.4l-3.8-19h-4.9L53.9,35z M25.6,35H33l3.8-19h-4.9L25.6,35z M28.2,5v1h40V5
	c0-0.6,0.4-1,1-1s1,0.4,1,1v6c0,1.1-0.9,2-2,2h-40c-1.1,0-2-0.9-2-2V5c0-0.6,0.4-1,1-1S28.2,4.4,28.2,5z M28.2,8v3h40V8H28.2z
	 M48.2,80.4c-0.6,0-1,0.4-1,1v7.3c0,0.6,0.4,1,1,1s1-0.4,1-1v-7.3C49.2,80.8,48.8,80.4,48.2,80.4z M49.2,60.3V41.9c0-0.6-0.4-1-1-1
	s-1,0.4-1,1v18.5c0,0.6,0.4,1,1,1S49.2,60.9,49.2,60.3z M62.3,57.9c0.5-0.1,0.9-0.6,0.8-1.1l-1.5-9.5c-0.1-0.5-0.6-0.9-1.1-0.8
	c-0.5,0.1-0.9,0.6-0.8,1.1l1.5,9.5c0.1,0.5,0.5,0.8,1,0.8C62.2,57.9,62.3,57.9,62.3,57.9z M60.1,43.7c0.5-0.1,0.9-0.6,0.8-1.1
	l-0.5-3.2c-0.1-0.5-0.6-0.9-1.1-0.8c-0.5,0.1-0.9,0.6-0.8,1.1l0.5,3.2c0.1,0.5,0.5,0.8,1,0.8C60,43.7,60,43.7,60.1,43.7z M82.1,69.9
	c-0.2-0.5-0.7-0.8-1.3-0.6c-0.5,0.2-0.8,0.7-0.6,1.3L88.3,95c0.1,0.4,0.5,0.7,0.9,0.7c0.1,0,0.2,0,0.3-0.1c0.5-0.2,0.8-0.7,0.6-1.3
	L82.1,69.9z M33.6,60.9c-0.5-0.1-1.1,0.3-1.1,0.8l-0.9,5.4c-2.5-0.5-4.4-2.6-4.4-5.3c0-0.9,0.2-1.9,0.7-2.7c0.3-0.5,0.1-1.1-0.4-1.4
	c-0.5-0.3-1.1-0.1-1.4,0.4c-0.6,1.1-1,2.4-1,3.7c0,3.6,2.6,6.6,6.1,7.3l-4.1,25.4c-0.1,0.5,0.3,1.1,0.8,1.1c0.1,0,0.1,0,0.2,0
	c0.5,0,0.9-0.4,1-0.8L34.4,62C34.5,61.5,34.1,61,33.6,60.9z M13,77c-0.5-0.2-1.1,0.1-1.3,0.6L6.3,94.4c-0.2,0.5,0.1,1.1,0.6,1.3
	c0.1,0,0.2,0.1,0.3,0.1c0.4,0,0.8-0.3,0.9-0.7l5.5-16.7C13.9,77.8,13.6,77.2,13,77z M18.1,61.7c0.1,0,0.2,0.1,0.3,0.1
	c0.4,0,0.8-0.3,0.9-0.7l6.8-20.7c0.2-0.5-0.1-1.1-0.6-1.3c-0.5-0.2-1.1,0.1-1.3,0.6l-6.8,20.7C17.3,60.9,17.6,61.5,18.1,61.7z"/>
</svg>
