<?xml version="1.0" encoding="utf-8"?>
<!-- Generator: Adobe Illustrator 25.1.0, SVG Export Plug-In . SVG Version: 6.00 Build 0)  -->
<svg version="1.1" id="Layer_1" xmlns="http://www.w3.org/2000/svg" xmlns:xlink="http://www.w3.org/1999/xlink" x="0px" y="0px"
	 viewBox="0 0 491.5 491.5" style="enable-background:new 0 0 491.5 491.5;" xml:space="preserve">
<g>
	<path d="M309.7,464.6H181.8c-1.8,0-3.4-1.3-3.8-3.1l-26.9-140.4c-0.2-1.1,0.1-2.3,0.8-3.2s1.8-1.4,3-1.4h181.7c1.1,0,2.2,0.5,3,1.4
		s1,2,0.8,3.2l-26.9,140.4C313.1,463.3,311.5,464.6,309.7,464.6z M185,457h121.5L332,324.3H159.6L185,457z"/>
	<path d="M336.6,324.3H154.9c-2.1,0-3.8-1.7-3.8-3.8v-27.9c0-2.1,1.7-3.8,3.8-3.8h181.7c2.1,0,3.8,1.7,3.8,3.8v27.9
		C340.4,322.6,338.7,324.3,336.6,324.3z M158.8,316.6h174v-20.2h-174V316.6z"/>
	<g>
		<g>
			<path d="M245.8,165.3c-3.2,0-6-1.2-8.2-3.6c-1.9-2.1-3.6-4.3-5.2-6.6c-1-1.5-2.9-2-4.6-1.2c-2.5,1.3-5.1,2.3-7.8,3.2
				c-3.1,0.9-6.1,0.6-8.9-1c-2.8-1.6-4.6-4.1-5.3-7.2c-0.6-2.7-1-5.5-1.1-8.3c-0.1-1.8-1.5-3.2-3.3-3.3c-2.8-0.1-5.6-0.5-8.3-1.1
				c-3.1-0.7-5.6-2.5-7.2-5.3c-1.6-2.8-1.9-5.9-1-8.9c0.8-2.7,1.9-5.3,3.2-7.8c0.8-1.6,0.3-3.6-1.2-4.6c-2.3-1.5-4.6-3.2-6.6-5.2
				c-2.4-2.2-3.6-5-3.6-8.2s1.2-6,3.6-8.2c2.1-1.9,4.3-3.6,6.6-5.2c1.5-1,2-2.9,1.2-4.6c-1.3-2.5-2.3-5.1-3.2-7.8
				c-0.9-3.1-0.6-6.1,1-8.9c1.6-2.8,4.1-4.6,7.2-5.3c2.8-0.6,5.5-1,8.3-1.1c1.8-0.1,3.2-1.5,3.3-3.3c0.1-2.8,0.5-5.6,1.1-8.3
				c0.7-3.1,2.5-5.6,5.3-7.2c2.8-1.6,5.9-1.9,8.9-1c2.7,0.8,5.3,1.9,7.8,3.2c1.6,0.8,3.6,0.3,4.6-1.2l0,0c1.5-2.3,3.2-4.6,5.2-6.6
				c2.2-2.4,5-3.6,8.2-3.6s6,1.2,8.2,3.6c1.9,2.1,3.7,4.3,5.2,6.6c1,1.5,2.9,2,4.6,1.2c2.5-1.3,5.1-2.3,7.8-3.2
				c3.1-0.9,6.1-0.6,8.9,1c2.8,1.6,4.6,4.1,5.3,7.2c0.6,2.8,1,5.5,1.1,8.3c0.1,1.8,1.5,3.2,3.3,3.3c2.8,0.1,5.6,0.5,8.3,1.1
				c3.1,0.7,5.6,2.5,7.2,5.3s1.9,5.9,1,8.9c-0.8,2.7-1.9,5.3-3.2,7.8c-0.8,1.6-0.3,3.6,1.2,4.6c2.3,1.5,4.6,3.2,6.6,5.2
				c2.4,2.2,3.6,5,3.6,8.2c0,3.2-1.2,6-3.6,8.2c-2.1,1.9-4.3,3.6-6.6,5.2c-1.5,1-2,2.9-1.2,4.6c1.3,2.5,2.3,5.1,3.2,7.8
				c0.9,3.1,0.6,6.1-1,8.9c-1.6,2.8-4.1,4.6-7.2,5.3c-2.8,0.6-5.5,1-8.3,1.1c-1.8,0.1-3.2,1.5-3.3,3.3c-0.1,2.8-0.5,5.6-1.1,8.3
				c-0.7,3.1-2.5,5.6-5.3,7.2c-2.8,1.6-5.9,1.9-8.9,1c-2.7-0.8-5.3-1.9-7.8-3.2c-1.6-0.8-3.6-0.3-4.6,1.2c-1.5,2.3-3.2,4.6-5.2,6.6
				C251.8,164.1,249,165.3,245.8,165.3z M229.5,145.8c3.7,0,7.3,1.8,9.4,5.1c1.3,2,2.7,3.8,4.3,5.6c0.7,0.8,1.5,1.1,2.6,1.1
				c1,0,1.9-0.4,2.6-1.1c1.6-1.7,3.1-3.6,4.3-5.6c3.1-4.9,9.4-6.5,14.5-3.9c2.1,1.1,4.3,2,6.5,2.7c1,0.3,1.9,0.2,2.8-0.3
				s1.4-1.2,1.7-2.3c0.5-2.3,0.9-4.7,1-7c0.3-5.8,4.9-10.3,10.6-10.6c2.3-0.1,4.7-0.4,7-1c1-0.2,1.7-0.8,2.3-1.7
				c0.5-0.9,0.6-1.8,0.3-2.8c-0.7-2.3-1.6-4.5-2.7-6.5c-2.6-5.1-1-11.4,3.9-14.5c2-1.3,3.8-2.7,5.6-4.3c0.8-0.7,1.1-1.5,1.1-2.6
				c0-1.1-0.3-1.9-1.1-2.6c-1.7-1.6-3.6-3.1-5.6-4.3c-4.9-3.1-6.5-9.4-3.9-14.5c1.1-2.1,2-4.3,2.7-6.5c0.3-1,0.2-1.9-0.3-2.8
				c-0.5-0.9-1.2-1.4-2.3-1.7c-2.3-0.5-4.7-0.8-7-1c-5.8-0.3-10.3-4.9-10.6-10.6c-0.1-2.3-0.4-4.7-1-7c-0.2-1-0.8-1.7-1.7-2.3
				c-0.9-0.5-1.8-0.6-2.8-0.3c-2.3,0.7-4.5,1.6-6.5,2.7c-5.1,2.6-11.4,1-14.5-3.9c-1.3-2-2.7-3.8-4.3-5.6c-0.7-0.8-1.5-1.1-2.6-1.1
				c-1,0-1.9,0.4-2.6,1.1c-1.6,1.7-3.1,3.6-4.3,5.6l0,0c-3.1,4.9-9.4,6.5-14.5,3.9c-2.1-1.1-4.3-2-6.5-2.7c-1-0.3-1.9-0.2-2.8,0.3
				c-0.9,0.5-1.4,1.2-1.7,2.3c-0.5,2.3-0.9,4.7-1,7c-0.3,5.8-4.9,10.3-10.6,10.6c-2.3,0.1-4.7,0.4-7,1c-1,0.2-1.7,0.8-2.3,1.7
				c-0.5,0.9-0.6,1.8-0.3,2.8c0.7,2.3,1.6,4.5,2.7,6.5c2.6,5.1,1,11.4-3.9,14.5c-2,1.3-3.8,2.7-5.6,4.3c-0.8,0.7-1.1,1.5-1.1,2.6
				s0.4,1.9,1.1,2.6c1.7,1.6,3.6,3.1,5.6,4.3c4.9,3.1,6.5,9.4,3.9,14.5c-1.1,2.1-2,4.3-2.7,6.5c-0.3,1-0.2,1.9,0.3,2.8
				c0.5,0.9,1.2,1.4,2.3,1.7c2.3,0.5,4.7,0.9,7,1c5.8,0.3,10.3,4.9,10.6,10.6c0.1,2.3,0.4,4.7,1,7c0.2,1,0.8,1.7,1.7,2.3
				c0.9,0.5,1.8,0.6,2.8,0.3c2.3-0.7,4.5-1.6,6.5-2.7C226,146.2,227.7,145.8,229.5,145.8z"/>
			<path d="M245.8,126.8c-16.9,0-30.7-13.8-30.7-30.7s13.8-30.7,30.7-30.7s30.7,13.8,30.7,30.7S262.7,126.8,245.8,126.8z
				 M245.8,73.1c-12.7,0-23,10.3-23,23c0,12.7,10.3,23,23,23s23-10.3,23-23S258.4,73.1,245.8,73.1z"/>
		</g>
		<path d="M245.8,296.4c-2.1,0-3.8-1.7-3.8-3.8V161.5c0-2.1,1.7-3.8,3.8-3.8s3.8,1.7,3.8,3.8v131.1
			C249.6,294.7,247.9,296.4,245.8,296.4z"/>
		<path d="M245.8,244.9c-1.2,0-2.3-0.5-3.1-1.6c-15.1-20.3-30.1-34.6-44.7-42.5c-1.9-1-2.6-3.3-1.5-5.2c1-1.9,3.3-2.6,5.2-1.5
			c15.6,8.5,31.5,23.5,47.2,44.7c1.3,1.7,0.9,4.1-0.8,5.4C247.4,244.7,246.6,244.9,245.8,244.9z"/>
		<path d="M209.9,220.1c-9.2,0-16.8-2.2-22.7-6.7c-8.5-6.4-13.4-17.4-14.7-32.7c-0.2-1.9,1.1-3.6,3-4.1c14.9-3.4,26.9-1.9,35.6,4.3
			c8.9,6.3,14.2,17.6,16,33.5c0.2,2-1.1,3.8-3.1,4.2C218.9,219.6,214.3,220.1,209.9,220.1z M180.5,183.5
			c1.4,11.2,5.2,19.2,11.3,23.8c6.3,4.7,15.4,6.2,27.1,4.4c-1.8-11.7-5.9-20-12.3-24.5C200.4,182.7,191.6,181.5,180.5,183.5z"/>
		<path d="M245.8,244.9c-0.8,0-1.6-0.2-2.3-0.8c-1.7-1.3-2.1-3.7-0.8-5.4c15.7-21.2,31.6-36.2,47.2-44.7c1.9-1,4.2-0.3,5.2,1.5
			c1,1.9,0.3,4.2-1.5,5.2c-14.6,7.9-29.7,22.2-44.7,42.5C248.1,244.4,246.9,244.9,245.8,244.9z"/>
		<path d="M281.5,220.1c-4.3,0-8.9-0.5-13.9-1.5c-2-0.4-3.3-2.2-3.1-4.2c1.7-15.9,7.1-27.2,15.9-33.5c8.7-6.2,20.6-7.7,35.6-4.3
			c1.9,0.4,3.1,2.1,3,4.1c-1.2,15.3-6.1,26.3-14.6,32.7C298.4,217.8,290.8,220.1,281.5,220.1z M272.6,211.7
			c11.7,1.8,20.8,0.3,27.1-4.5c6.1-4.6,9.9-12.6,11.3-23.8c-11.1-2-19.9-0.7-26.1,3.7C278.5,191.7,274.4,200,272.6,211.7z"/>
	</g>
</g>
</svg>
