<?xml version="1.0" encoding="utf-8"?>
<!-- Generator: Adobe Illustrator 25.1.0, SVG Export Plug-In . SVG Version: 6.00 Build 0)  -->
<svg version="1.1" id="Layer_1" xmlns="http://www.w3.org/2000/svg" xmlns:xlink="http://www.w3.org/1999/xlink" x="0px" y="0px"
	 viewBox="0 0 100 100.1" style="enable-background:new 0 0 100 100.1;" xml:space="preserve">
<g>
	<path d="M52.4,48.5c-2.4-0.6-4.9-0.3-7,0.9c-2.1,1.2-3.7,3.2-4.3,5.6c-0.6,2.4-0.3,4.9,0.9,7c1.2,2.1,3.2,3.7,5.6,4.3
		c0.8,0.2,1.6,0.3,2.4,0.3c1.6,0,3.2-0.4,4.6-1.2c2.1-1.2,3.7-3.2,4.3-5.6c0.6-2.4,0.3-4.9-0.9-7C56.8,50.7,54.8,49.2,52.4,48.5z
		 M56.3,59.1c-0.5,1.7-1.5,3.1-3,3.9c0,0,0,0,0,0c-1.5,0.9-3.2,1.1-4.9,0.7c-1.7-0.4-3.1-1.5-4-3c-1.8-3.1-0.7-7.1,2.4-8.9
		c1-0.6,2.1-0.9,3.2-0.9c0.6,0,1.1,0.1,1.7,0.2c1.7,0.5,3.1,1.5,4,3C56.5,55.7,56.7,57.5,56.3,59.1z"/>
	<path d="M52.4,17.5c-2.4-0.6-4.9-0.3-7,0.9c-2.1,1.2-3.7,3.2-4.3,5.6c-0.6,2.4-0.3,4.9,0.9,7c1.2,2.1,3.2,3.7,5.6,4.3
		c0.8,0.2,1.6,0.3,2.4,0.3c1.6,0,3.2-0.4,4.6-1.2c2.1-1.2,3.7-3.2,4.3-5.6c0.6-2.4,0.3-4.9-0.9-7C56.8,19.7,54.8,18.1,52.4,17.5z
		 M56.3,28.1c-0.5,1.7-1.5,3.1-3,3.9c0,0,0,0,0,0c-1.5,0.9-3.2,1.1-4.9,0.7c-1.7-0.4-3.1-1.5-4-3c-1.8-3.1-0.7-7.1,2.4-8.9
		c1-0.6,2.1-0.9,3.2-0.9c0.6,0,1.1,0.1,1.7,0.2c1.7,0.5,3.1,1.5,4,3C56.5,24.7,56.7,26.4,56.3,28.1z"/>
	<path d="M18.2,65.6c-2.1,1.2-3.7,3.2-4.3,5.6c-0.6,2.4-0.3,4.9,0.9,7c1.7,3,4.8,4.6,8,4.6c1.6,0,3.2-0.4,4.6-1.2c0,0,0,0,0,0
		c4.4-2.5,5.9-8.2,3.4-12.6C28.2,64.6,22.6,63,18.2,65.6z M29.1,75.3c-0.4,1.7-1.5,3.1-3,3.9c-3.1,1.8-7.1,0.7-8.9-2.4
		c-0.9-1.5-1.1-3.3-0.6-4.9c0.5-1.7,1.5-3.1,3-3.9c1-0.6,2.1-0.9,3.2-0.9c2.2,0,4.4,1.2,5.6,3.2C29.3,71.8,29.5,73.6,29.1,75.3z"/>
	<path d="M79.6,64.7c-2.4-0.6-4.9-0.3-7,0.9c-2.1,1.2-3.7,3.2-4.3,5.6c-0.6,2.4-0.3,4.9,0.9,7c1.7,3,4.8,4.6,8,4.6
		c1.6,0,3.2-0.4,4.6-1.2c2.1-1.2,3.7-3.2,4.3-5.6c0.6-2.4,0.3-4.9-0.9-7C84,66.8,82,65.3,79.6,64.7z M83.5,75.3
		c-0.4,1.7-1.5,3.1-3,3.9c0,0,0,0,0,0c-3.1,1.8-7.1,0.7-8.9-2.4c-0.9-1.5-1.1-3.3-0.6-5c0.5-1.7,1.5-3.1,3-3.9
		c1-0.6,2.1-0.9,3.2-0.9c0.6,0,1.1,0.1,1.7,0.2c1.7,0.4,3.1,1.5,3.9,3C83.7,71.8,84,73.6,83.5,75.3z"/>
	<path d="M92.6,64.7c-3.3-5.7-9.5-9.1-16-8.9c-4.9,0-9.2-2.5-11.6-6.7c-2.4-4.3-2.3-9.4,0.3-13.7c2-3.4,2.8-7.5,2.3-11.4
		c-0.3-2.3-1.1-4.5-2.2-6.5c-0.1-0.3-0.3-0.5-0.4-0.7c-3.3-5.1-8.8-8.2-15-8.2c-3.1,0-6.2,0.8-8.8,2.4c-4.1,2.4-7.1,6.2-8.3,10.8
		c-1.2,4.6-0.6,9.4,1.8,13.6c0,0,0.1,0.1,0.1,0.1c0,0,0,0.1,0.1,0.1c2.6,4.2,2.7,9.2,0.3,13.5c-2.4,4.3-6.7,6.7-11.6,6.7
		c-3.4-0.1-6.7,0.7-9.6,2.4c-0.8,0.5-1.5,0.9-2.2,1.5c-2.1,1.7-3.7,3.7-4.9,6.1c0,0,0,0.1-0.1,0.1c-2.6,5.3-2.3,11.5,0.6,16.6
		c2.4,4.1,6.2,7.1,10.8,8.3c1.5,0.4,3.1,0.6,4.6,0.6c3.1,0,6.1-0.8,8.9-2.4c2.7-1.6,5-3.8,6.5-6.5C40.5,78,45,75.4,50,75.4
		c0,0,0,0,0,0c5,0,9.4,2.6,11.8,7.1c2,3.5,5.2,6.2,8.9,7.7c2.4,0.9,5.1,1.4,7.7,1.2c2.7-0.2,5.2-1,7.6-2.3
		C94.6,84.1,97.5,73.2,92.6,64.7z M84.8,86.6c-2,1.2-4.2,1.8-6.5,2c-2.2,0.1-4.4-0.2-6.5-1c-3.2-1.2-5.9-3.5-7.5-6.4
		c-2.9-5.3-8.2-8.5-14.2-8.5c0,0,0,0,0,0c-6.1,0-11.4,3.2-14.3,8.5c-1.3,2.3-3.2,4.1-5.5,5.5c-3.5,2-7.5,2.5-11.4,1.5
		c-3.9-1-7.1-3.5-9.1-7C7.2,76.8,7.1,71.5,9.3,67c0,0,0-0.1,0-0.1c1-2,2.4-3.7,4.1-5.1c0.5-0.4,1.2-0.9,1.8-1.2
		c2.5-1.4,5.3-2.1,8.2-2c5.9,0,11.2-3,14-8.1c2.9-5.1,2.8-11.1-0.2-16c0-0.1-0.1-0.2-0.2-0.3L37,33.9c-2-3.5-2.5-7.5-1.5-11.4
		c1-3.9,3.5-7.1,7-9.1c2.3-1.3,4.9-2,7.5-2c5.2,0,9.9,2.6,12.7,7c0.1,0.2,0.2,0.4,0.4,0.6c1,1.7,1.6,3.6,1.9,5.5c0,0,0,0,0,0
		c0.4,3.3-0.2,6.7-1.9,9.6c-3.2,5.1-3.3,11.2-0.3,16.4c2.9,5.1,8,8.1,13.8,8.1c0.1,0,0.1,0,0.2,0c5.6-0.2,10.8,2.7,13.6,7.5
		C94.4,73.2,91.9,82.5,84.8,86.6z"/>
</g>
</svg>
