<?xml version="1.0" encoding="utf-8"?>
<!-- Generator: Adobe Illustrator 25.1.0, SVG Export Plug-In . SVG Version: 6.00 Build 0)  -->
<svg version="1.1" id="Layer_1" xmlns="http://www.w3.org/2000/svg" xmlns:xlink="http://www.w3.org/1999/xlink" x="0px" y="0px"
	 viewBox="0 0 700 599" style="enable-background:new 0 0 700 599;" xml:space="preserve">
<symbol  id="a" viewBox="-12.9 -20.5 25.8 41">
	<path d="M2.4-20.5v9.1h10.5v7.3H2.4V9.4c0,1.5,0.3,2.5,0.9,3c0.6,0.5,1.8,0.8,3.5,0.8H12v7.3H3.3c-4,0-6.9-0.8-8.6-2.5
		c-1.7-1.7-2.5-4.5-2.5-8.6V-4.1h-5.1v-7.3h5.1v-9.1L2.4-20.5z"/>
</symbol>
<symbol  id="b" viewBox="-22.3 -21.3 44.6 42.5">
	<path d="M-22.3-21.3h11L0,10.1l11.2-31.4h11L6.5,21.3H-6.5L-22.3-21.3z"/>
</symbol>
<symbol  id="c" viewBox="-17.1 -22.6 34.2 45.1">
	<path d="M-0.1,15.2c2.2,0,3.8-0.8,5-2.4c1.2-1.6,1.7-3.9,1.7-7c0-3-0.6-5.4-1.7-7C3.7-2.7,2-3.5-0.1-3.5c-2.2,0-3.9,0.8-5,2.4
		c-1.2,1.6-1.8,3.9-1.8,6.9c0,3,0.6,5.3,1.8,6.9C-4,14.4-2.3,15.2-0.1,15.2z M-6.9-5.5c1.4-1.9,3-3.2,4.7-4.1
		c1.7-0.9,3.7-1.3,5.9-1.3c3.9,0,7.2,1.6,9.7,4.7c2.5,3.1,3.8,7.1,3.8,12.1c0,4.9-1.3,8.9-3.8,12.1c-2.5,3.1-5.8,4.7-9.7,4.7
		c-2.2,0-4.2-0.4-5.9-1.3C-4,20.4-5.5,19-6.9,17.1v4.6h-10.2v-44.3h10.2V-5.5z"/>
</symbol>
<symbol  id="d" viewBox="-17.1 -22.6 34.2 45.1">
	<path d="M6.9-5.5v-17.1h10.3v44.3H6.9v-4.6c-1.4,1.9-2.9,3.2-4.6,4.1c-1.7,0.9-3.6,1.3-5.9,1.3c-3.9,0-7.2-1.6-9.7-4.7
		c-2.5-3.1-3.8-7.1-3.8-12.1c0-4.9,1.3-8.9,3.8-12.1c2.5-3.1,5.8-4.7,9.7-4.7c2.2,0,4.1,0.4,5.8,1.3C3.9-8.7,5.5-7.3,6.9-5.5
		L6.9-5.5z M0.1,15.2c2.2,0,3.9-0.8,5-2.4c1.1-1.6,1.7-3.9,1.7-7c0-3-0.6-5.4-1.7-7C4-2.7,2.3-3.5,0.1-3.5c-2.2,0-3.8,0.8-5,2.4
		c-1.1,1.6-1.7,3.9-1.7,7c0,3,0.6,5.4,1.7,7C-3.7,14.4-2,15.2,0.1,15.2z"/>
</symbol>
<symbol  id="e" viewBox="-18.1 -22.1 36.2 44.1">
	<path d="M18.1,18.9c-2,1-4.1,1.8-6.3,2.4S7.3,22.1,5,22.1c-7.1,0-12.7-2-16.8-5.9c-4.1-4-6.2-9.3-6.2-16.1c0-6.8,2.1-12.2,6.2-16.1
		c4.1-4,9.8-6,16.8-6c2.4,0,4.6,0.3,6.8,0.8s4.3,1.3,6.3,2.4v8.8c-2-1.4-4-2.4-6-3c-2-0.6-4-1-6.2-1c-3.9,0-7,1.3-9.2,3.8
		C-5.6-7.8-6.8-4.4-6.8,0c0,4.4,1.1,7.8,3.4,10.3c2.2,2.5,5.3,3.8,9.2,3.8c2.2,0,4.3-0.3,6.2-1c2-0.6,4-1.7,6-3L18.1,18.9z"/>
</symbol>
<g>
	<path d="M627.7,148.2l-51.3-140c-1.2-3.5-5.8-10.5-15.2-7L360.5,80.5c-5.8,2.3-9.3,9.3-7,15.2v1.2L207.7,154
		c-5.8,2.3-9.3,9.3-7,15.2l1.2,4.7L133,199.5c-12.8-19.8-32.7-17.5-40.8-14c-16.3,7-25.7,25.7-19.8,43.2l31.5,74.7
		c12.8,28,38.5,21,42,19.8c8.2-2.3,25.7-14,22.2-37.3l68.8-24.5c0,0,2.3,15.2,16.3,11.7l8.2-2.3c3.5,19.8,16.3,38.5,33.8,49
		L193.7,542.5c-2.3,5.8,0,12.8,5.8,15.2c1.2,1.2,10.5,3.5,15.2-5.8l102.7-224c14,3.5,25.7,1.2,30.3,0l102.7,224
		c5.8,9.3,14,7,15.2,5.8c5.8-2.3,8.2-9.3,5.8-15.2L369.8,319.7c21-12.8,35-36.2,35-60.7c0-11.7-3.5-23.3-8.2-32.7l7-2.3
		c0,1.2,4.7,11.7,15.2,8.2l201.8-68.8C630,161,628.8,151.7,627.7,148.2L627.7,148.2z M138.8,302.2c-5.8,1.2-11.7-1.2-12.8-5.8
		l-28-75.8c-2.3-4.7,1.2-11.7,5.8-12.8c7-2.3,11.7,3.5,12.8,5.8l28,77C145.8,291.7,145.8,299.8,138.8,302.2z M159.8,264.8
		l-16.3-44.3l67.7-25.7l16.3,45.5L159.8,264.8z M332.5,308c-26.8,0-47.8-21-47.8-47.8s21-47.8,47.8-47.8s47.8,21,47.8,47.8
		C380.3,285.8,358.2,308,332.5,308z M380.3,206.5c-12.8-11.7-30.3-18.7-47.8-18.7c-35,0-64.2,25.7-70,59.5l-4.7,2.3
		c-3.5-9.3-25.7-68.8-28-78.2l133-53.7l30.3,84L380.3,206.5z M420,206.5L380.3,98l178.5-71.2l43.2,119L420,206.5z"/>
	
		<use xlink:href="#e"  width="36.2" height="44.1" x="-18.1" y="-22.1" transform="matrix(1 0 0 1 90.992 713.7659)" style="overflow:visible;"/>
	
		<use xlink:href="#a"  width="25.8" height="41" x="-12.9" y="-20.5" transform="matrix(1 0 0 1 234.1601 714.5234)" style="overflow:visible;"/>
	
		<use xlink:href="#d"  width="34.2" height="45.1" x="-17.1" y="-22.6" transform="matrix(1 0 0 1 307.6958 713.2581)" style="overflow:visible;"/>
	
		<use xlink:href="#c"  width="34.2" height="45.1" x="-17.1" y="-22.6" transform="matrix(1 0 0 1 372.031 713.2573)" style="overflow:visible;"/>
	
		<use xlink:href="#b"  width="44.6" height="42.5" x="-22.3" y="-21.3" transform="matrix(1 0 0 1 472.6757 713.742)" style="overflow:visible;"/>
	<g>
		<defs>
			<rect id="SVGID_1_" x="569.4" y="735" width="700" height="700"/>
		</defs>
		<clipPath id="SVGID_2_">
			<use xlink:href="#SVGID_1_"  style="overflow:visible;"/>
		</clipPath>
		<g style="clip-path:url(#SVGID_2_);">
			
				<use xlink:href="#a"  width="25.8" height="41" x="-12.9" y="-20.5" transform="matrix(1 0 0 1 583.0507 714.5234)" style="overflow:visible;"/>
		</g>
	</g>
</g>
</svg>
