<?xml version="1.0" encoding="utf-8"?>
<!-- Generator: Adobe Illustrator 25.1.0, SVG Export Plug-In . SVG Version: 6.00 Build 0)  -->
<svg version="1.1" id="Layer_1" xmlns="http://www.w3.org/2000/svg" xmlns:xlink="http://www.w3.org/1999/xlink" x="0px" y="0px"
	 viewBox="0 0 334.9 560" style="enable-background:new 0 0 334.9 560;" xml:space="preserve">
<symbol  id="a" viewBox="-6.4 -6.3 12.8 12.6">
	<path d="M6.4,0V1h-8.9c0.1,0.9,0.4,1.6,1,2C-1,3.5-0.2,3.7,0.8,3.7c0.8,0,1.6-0.1,2.5-0.4C4.1,3.1,5,2.8,5.9,2.3v3
		C5,5.6,4,5.8,3.1,6C2.2,6.2,1.3,6.3,0.4,6.3c-2.2,0-3.8-0.5-5-1.6C-5.8,3.5-6.4,2-6.4,0c0-1.9,0.6-3.5,1.8-4.6
		c1.2-1.1,2.8-1.7,4.9-1.7c1.9,0,3.4,0.6,4.5,1.7C5.9-3.5,6.4-1.9,6.4,0L6.4,0z M2.5-1.3c0-0.7-0.2-1.3-0.6-1.8
		c-0.4-0.4-1-0.7-1.7-0.7c-0.7,0-1.3,0.2-1.8,0.6c-0.5,0.4-0.7,1-0.9,1.8L2.5-1.3z"/>
</symbol>
<symbol  id="b" viewBox="-4.8 -7.7 9.7 15.4">
	<path d="M0.9-7.7v3.4h3.9v2.7H0.9v5.1c0,0.6,0.1,0.9,0.3,1.1c0.2,0.2,0.7,0.3,1.3,0.3h2v2.7H1.2c-1.5,0-2.6-0.3-3.2-0.9
		C-2.6,6.1-2.9,5-2.9,3.5v-5.1h-1.9v-2.7h1.9v-3.4L0.9-7.7z"/>
</symbol>
<symbol  id="c" viewBox="-4.4 -6.1 8.9 12.3">
	<path d="M4.4-2.6c-0.3-0.2-0.7-0.3-1-0.3C3.1-3,2.8-3,2.4-3c-1,0-1.7,0.3-2.3,1c-0.5,0.6-0.8,1.5-0.8,2.7v5.5h-3.8v-12h3.8v2
		c0.5-0.8,1.1-1.3,1.7-1.7c0.6-0.4,1.4-0.5,2.3-0.5c0.1,0,0.3,0,0.4,0c0.1,0,0.4,0,0.7,0.1L4.4-2.6z"/>
</symbol>
<symbol  id="d" viewBox="-6.6 -6.3 13.2 12.6">
	<path d="M0-3.5c-0.8,0-1.5,0.3-1.9,0.9C-2.4-2-2.6-1.1-2.6,0c0,1.1,0.2,2,0.7,2.6C-1.5,3.2-0.8,3.5,0,3.5c0.8,0,1.5-0.3,1.9-0.9
		C2.4,2,2.6,1.1,2.6,0c0-1.1-0.2-2-0.7-2.6C1.5-3.2,0.8-3.5,0-3.5z M0-6.3c2.1,0,3.7,0.6,4.8,1.7C6-3.5,6.6-2,6.6,0S6,3.5,4.8,4.6
		C3.7,5.7,2.1,6.3,0,6.3c-2.1,0-3.7-0.6-4.8-1.7C-6,3.5-6.6,2-6.6,0S-6-3.5-4.8-4.6C-3.7-5.7-2-6.3,0-6.3z"/>
</symbol>
<symbol  id="e" viewBox="-6.6 -8 13.1 16">
	<path d="M-6.6-8h6.8c2,0,3.6,0.5,4.7,1.4C6-5.7,6.6-4.4,6.6-2.8c0,1.7-0.5,3-1.6,3.9C3.8,2,2.3,2.4,0.3,2.4h-2.7V8h-4.1V-8z
		 M-2.5-5v4.5h2.3c0.8,0,1.4-0.2,1.8-0.6c0.4-0.4,0.7-0.9,0.7-1.7c0-0.7-0.2-1.3-0.7-1.6C1.2-4.8,0.6-5-0.2-5L-2.5-5z"/>
</symbol>
<symbol  id="f" viewBox="-5.7 -8 11.3 16">
	<path d="M-5.7-8h4.1V4.9h7.2V8H-5.7L-5.7-8z"/>
</symbol>
<symbol  id="g" viewBox="-5.7 -8 11.3 16">
	<path d="M-5.7-8H5.4v3.1h-7v3H5v3.1h-6.6v3.7h7.2V8H-5.7L-5.7-8z"/>
</symbol>
<symbol  id="h" viewBox="-6.8 -8.3 13.6 16.5">
	<path d="M6.8,7.1C6,7.5,5.2,7.8,4.4,8C3.6,8.2,2.7,8.3,1.9,8.3c-2.7,0-4.8-0.7-6.3-2.2C-6,4.6-6.8,2.6-6.8,0c0-2.6,0.8-4.6,2.3-6
		c1.6-1.5,3.7-2.2,6.3-2.2c0.9,0,1.7,0.1,2.5,0.3C5.2-7.8,6-7.5,6.8-7.1v3.3C6-4.3,5.3-4.7,4.5-4.9C3.8-5.2,3-5.3,2.2-5.3
		c-1.5,0-2.6,0.5-3.5,1.4C-2.1-2.9-2.5-1.6-2.5,0c0,1.6,0.4,2.9,1.2,3.9c0.8,0.9,2,1.4,3.5,1.4c0.8,0,1.6-0.1,2.3-0.4
		C5.3,4.7,6,4.3,6.8,3.8V7.1z"/>
</symbol>
<symbol  id="i" viewBox="-11.4 -8 22.8 16">
	<path d="M-11.4-8h3.9l2.8,11.6L-2-8h4L4.7,3.6L7.5-8h3.9L7.6,8H2.9L0-4.1L-2.9,8h-4.8L-11.4-8z"/>
</symbol>
<symbol  id="j" viewBox="-6.8 -8.3 13.6 16.7">
	<path d="M-6.8-8.3H-3l3.2,8.1L3-8.3h3.8l-5,13.1C1.3,6.1,0.7,7,0,7.5c-0.7,0.5-1.6,0.8-2.7,0.8h-2.2V5.8h1.2c0.6,0,1.1-0.1,1.4-0.3
		C-2,5.3-1.7,5-1.6,4.4l0.1-0.3L-6.8-8.3z"/>
</symbol>
<symbol  id="k" viewBox="-6.4 -8.5 12.8 16.9">
	<path d="M-0.1,5.7c0.8,0,1.4-0.3,1.9-0.9c0.4-0.6,0.6-1.5,0.6-2.6c0-1.1-0.2-2-0.6-2.6C1.4-1,0.8-1.3-0.1-1.3
		c-0.8,0-1.5,0.3-1.9,0.9c-0.4,0.6-0.7,1.5-0.7,2.6c0,1.1,0.2,2,0.7,2.6C-1.5,5.4-0.9,5.7-0.1,5.7L-0.1,5.7z M-2.6-2.1
		c0.5-0.7,1.1-1.2,1.8-1.5c0.6-0.3,1.4-0.5,2.2-0.5C2.8-4.1,4-3.5,5-2.3c0.9,1.2,1.4,2.7,1.4,4.5S5.9,5.5,5,6.7
		C4,7.9,2.8,8.5,1.4,8.5C0.5,8.5-0.2,8.3-0.9,8c-0.6-0.3-1.2-0.8-1.8-1.5v1.7h-3.8V-8.5h3.8L-2.6-2.1z"/>
</symbol>
<symbol  id="l" viewBox="-6.4 -8.5 12.8 16.9">
	<path d="M2.6-2.1v-6.4h3.9V8.2H2.6V6.4C2,7.1,1.5,7.7,0.8,8C0.2,8.3-0.5,8.5-1.4,8.5c-1.5,0-2.7-0.6-3.6-1.8
		C-5.9,5.5-6.4,4-6.4,2.2S-5.9-1.2-5-2.3c0.9-1.2,2.2-1.8,3.6-1.8c0.8,0,1.6,0.2,2.2,0.5C1.5-3.3,2-2.8,2.6-2.1L2.6-2.1z M0,5.7
		c0.8,0,1.4-0.3,1.9-0.9c0.4-0.6,0.6-1.5,0.6-2.6c0-1.1-0.2-2-0.6-2.6C1.5-1,0.9-1.3,0-1.3c-0.8,0-1.4,0.3-1.9,0.9
		C-2.2,0.2-2.5,1-2.5,2.2c0,1.1,0.2,2,0.6,2.6C-1.4,5.4-0.8,5.7,0,5.7z"/>
</symbol>
<symbol  id="m" viewBox="-6.1 -6.3 12.1 12.6">
	<path d="M0.2,0.6c-0.8,0-1.4,0.1-1.8,0.4C-2,1.3-2.2,1.7-2.2,2.2C-2.2,2.7-2,3-1.7,3.3c0.3,0.3,0.8,0.4,1.4,0.4
		C0.4,3.7,1,3.5,1.5,3c0.5-0.5,0.7-1.2,0.7-2V0.6L0.2,0.6z M6.1-0.9V6H2.2V4.2C1.7,4.9,1.1,5.4,0.5,5.8C-0.2,6.1-1,6.3-1.9,6.3
		c-1.2,0-2.2-0.4-3-1.1c-0.8-0.7-1.2-1.7-1.2-2.8C-6.1,1-5.6,0-4.6-0.7c1-0.7,2.5-1,4.6-1h2.2V-2c0-0.6-0.2-1-0.7-1.3
		C1-3.6,0.2-3.7-0.8-3.7c-0.8,0-1.6,0.1-2.3,0.2c-0.7,0.2-1.4,0.4-2,0.7v-2.9C-4.2-5.9-3.4-6-2.5-6.1c0.8-0.1,1.6-0.2,2.5-0.2
		c2.2,0,3.7,0.4,4.7,1.3C5.6-4.2,6.1-2.8,6.1-0.9L6.1-0.9z"/>
</symbol>
<symbol  id="n" viewBox="-5.3 -6.3 10.6 12.6">
	<path d="M5.3-5.6v3.1c-0.5-0.4-1-0.6-1.6-0.8C3.2-3.5,2.7-3.5,2.1-3.5C1-3.5,0.2-3.2-0.4-2.6S-1.3-1.1-1.3,0c0,1.1,0.3,2,0.9,2.6
		S1,3.5,2.1,3.5c0.6,0,1.2-0.1,1.7-0.3c0.5-0.2,1-0.4,1.5-0.8v3.1C4.7,5.8,4.1,6,3.5,6.1C2.9,6.2,2.2,6.3,1.6,6.3
		c-2.2,0-3.8-0.6-5.1-1.7C-4.7,3.5-5.3,2-5.3,0s0.6-3.5,1.8-4.6c1.2-1.1,2.9-1.7,5.1-1.7c0.6,0,1.2,0.1,1.8,0.2
		C4.1-6,4.7-5.8,5.3-5.6L5.3-5.6z"/>
</symbol>
<symbol  id="o" viewBox="-3.2 -10.7 6.4 21.3">
	<path d="M-0.6-6h3.8V5.7c0,1.6-0.4,2.8-1.2,3.7c-0.8,0.8-1.9,1.3-3.3,1.3h-1.9V8.2h0.7C-1.8,8.2-1.3,8-1,7.7c0.3-0.3,0.4-1,0.4-1.9
		L-0.6-6z M-0.6-10.7h3.8v3.1h-3.8L-0.6-10.7z"/>
</symbol>
<symbol  id="p" viewBox="-6 -6.1 12 12.3">
	<path d="M6-1.2v7.3H2.2V0.5c0-1,0-1.7-0.1-2.1C2-2,2-2.3,1.9-2.5C1.7-2.7,1.5-2.9,1.2-3C1-3.2,0.7-3.2,0.4-3.2
		c-0.8,0-1.4,0.3-1.9,0.9C-2-1.7-2.2-0.8-2.2,0.2v5.9H-6v-12h3.8v1.8C-1.6-4.8-1-5.3-0.4-5.6C0.3-6,1-6.1,1.8-6.1
		c1.4,0,2.4,0.4,3.1,1.3C5.6-4,6-2.8,6-1.2L6-1.2z"/>
</symbol>
<symbol  id="q" viewBox="-6 -6.1 12 12.3">
	<path d="M-6,1.2v-7.3h3.8v1.2c0,0.6,0,1.5,0,2.4v2c0,1,0,1.7,0.1,2.1C-2.1,2-2,2.3-1.9,2.5C-1.7,2.7-1.5,2.9-1.2,3
		C-1,3.2-0.7,3.2-0.4,3.2c0.8,0,1.4-0.3,1.9-0.9C2,1.7,2.2,0.9,2.2-0.2v-5.9H6v12H2.2V4.1C1.6,4.8,1,5.3,0.4,5.6
		C-0.3,6-1,6.1-1.8,6.1c-1.4,0-2.4-0.4-3.2-1.3C-5.7,4-6,2.8-6,1.2L-6,1.2z"/>
</symbol>
<symbol  id="r" viewBox="-7.1 -8 14.3 16">
	<path d="M-7.1-8h4.6L3.3,3V-8h3.9V8H2.5L-3.3-3V8h-3.9L-7.1-8z"/>
</symbol>
<symbol  id="s" viewBox="-6 -8.3 12 16.6">
	<path d="M6,1v7.3H2.2V2.8c0-1.1,0-1.8-0.1-2.2C2,0.2,2-0.1,1.9-0.3C1.7-0.5,1.5-0.7,1.2-0.8C1-1,0.7-1.1,0.4-1.1
		c-0.8,0-1.4,0.3-1.9,0.9C-2,0.5-2.2,1.3-2.2,2.4v5.9H-6V-8.3h3.8v6.4C-1.6-2.6-1-3.1-0.4-3.4C0.3-3.8,1-3.9,1.8-3.9
		c1.4,0,2.4,0.4,3.1,1.3C5.6-1.8,6-0.6,6,1L6,1z"/>
</symbol>
<symbol  id="t" viewBox="-9.6 -6.1 19.3 12.3">
	<path d="M1.5-3.8C2-4.6,2.5-5.2,3.2-5.5c0.7-0.4,1.4-0.6,2.2-0.6c1.4,0,2.4,0.4,3.1,1.3C9.3-4,9.6-2.8,9.6-1.2v7.3H5.8v-6.2
		c0-0.1,0-0.2,0-0.3v-0.4c0-0.8-0.1-1.5-0.4-1.8C5.2-3.1,4.8-3.2,4.2-3.2c-0.7,0-1.3,0.3-1.7,0.9C2.1-1.7,1.9-0.9,1.9,0.3v5.9h-3.8
		v-6.2c0-1.3-0.1-2.2-0.3-2.6c-0.2-0.4-0.6-0.6-1.2-0.6c-0.7,0-1.3,0.3-1.7,0.9c-0.4,0.6-0.6,1.5-0.6,2.6v5.9h-3.8v-12h3.8v1.8
		c0.5-0.7,1-1.2,1.6-1.5c0.6-0.3,1.3-0.5,2-0.5c0.8,0,1.6,0.2,2.2,0.6C0.7-5.1,1.2-4.6,1.5-3.8L1.5-3.8z"/>
</symbol>
<symbol  id="u" viewBox="-4.6 -8.3 9.3 16.6">
	<path d="M4.6-8.3v2.5H2.5C2-5.8,1.6-5.7,1.4-5.5C1.2-5.3,1.1-5,1.1-4.5v0.8h3.3v2.7H1.1v9.2h-3.8v-9.2h-1.9v-2.7h1.9v-0.8
		c0-1.3,0.4-2.3,1.1-2.9C-0.9-8,0.2-8.3,1.7-8.3L4.6-8.3z"/>
</symbol>
<symbol  id="v" viewBox="-6.3 -8.3 12.6 16.5">
	<path d="M5.3-7.5v3.4C4.4-4.5,3.5-4.8,2.7-5C1.9-5.2,1.1-5.3,0.3-5.3c-1,0-1.7,0.1-2.2,0.4c-0.5,0.3-0.7,0.7-0.7,1.2
		c0,0.4,0.2,0.8,0.5,1C-1.8-2.4-1.2-2.2-0.4-2l1.8,0.3c1.8,0.4,3,0.9,3.8,1.6c0.8,0.7,1.1,1.8,1.1,3.1c0,1.8-0.5,3.1-1.6,3.9
		C3.7,7.8,2.1,8.3,0,8.3c-1,0-2-0.1-3-0.3c-1-0.2-2-0.5-3.1-0.8V3.7c1,0.5,2,0.9,3,1.2c1,0.3,1.9,0.4,2.8,0.4c0.9,0,1.6-0.1,2.1-0.4
		c0.5-0.3,0.7-0.7,0.7-1.3c0-0.5-0.2-0.9-0.5-1.1c-0.3-0.3-1-0.5-1.9-0.7l-1.6-0.4C-3.3,1-4.4,0.4-5.2-0.3c-0.7-0.7-1.1-1.8-1.1-3
		c0-1.6,0.5-2.8,1.5-3.7c1-0.9,2.5-1.3,4.4-1.3c0.9,0,1.8,0.1,2.7,0.2C3.3-7.9,4.3-7.7,5.3-7.5L5.3-7.5z"/>
</symbol>
<symbol  id="w" viewBox="-8.2 -8.3 16.4 16.5">
	<path d="M0-5.3c-1.3,0-2.2,0.5-2.9,1.4C-3.6-3-4-1.7-4,0c0,1.7,0.3,3,1,3.9C-2.2,4.8-1.3,5.3,0,5.3c1.3,0,2.2-0.5,2.9-1.4
		C3.6,3,4,1.7,4,0c0-1.7-0.3-3-1-3.9C2.2-4.8,1.3-5.3,0-5.3z M0-8.3c2.6,0,4.6,0.7,6,2.2C7.5-4.6,8.2-2.6,8.2,0
		c0,2.6-0.7,4.6-2.2,6.1C4.6,7.5,2.6,8.3,0,8.3s-4.6-0.7-6-2.2C-7.5,4.6-8.2,2.6-8.2,0c0-2.6,0.7-4.6,2.2-6.1
		C-4.6-7.5-2.6-8.3,0-8.3z"/>
</symbol>
<symbol  id="x" viewBox="-7.1 -8 14.3 16">
	<path d="M-7.1-8H-3v6.1H3V-8h4.1V8H3V1.2H-3V8h-4.1V-8z"/>
</symbol>
<symbol  id="y" viewBox="-7.3 -8 14.7 16">
	<path d="M-7.3-8H7.3v3.1H2.1V8H-2V-4.9h-5.3L-7.3-8z"/>
</symbol>
<symbol  id="z" viewBox="-6.6 -8 13.1 16">
	<path d="M-0.2-1.8c0.7,0,1.1-0.1,1.5-0.4c0.3-0.3,0.5-0.7,0.5-1.3c0-0.6-0.2-1-0.5-1.3C1-5,0.5-5.2-0.2-5.2h-2.3v3.4L-0.2-1.8z
		 M0,5.2c0.8,0,1.4-0.2,1.9-0.5c0.4-0.4,0.6-0.9,0.6-1.6c0-0.7-0.2-1.2-0.6-1.5C1.4,1.2,0.8,1,0,1h-2.4v4.2L0,5.2z M3.8-0.6
		c0.9,0.2,1.6,0.7,2,1.4c0.5,0.7,0.7,1.5,0.7,2.5C6.6,4.9,6,6.1,5,6.9C4,7.6,2.4,8,0.2,8h-6.8V-8h6.2c2.2,0,3.8,0.3,4.8,1
		c1,0.7,1.5,1.7,1.5,3.2c0,0.8-0.2,1.4-0.5,2C5-1.2,4.5-0.8,3.8-0.6L3.8-0.6z"/>
</symbol>
<g>
	<path d="M334.9,516.2V43.8c0-11.6-4.6-22.7-12.8-30.9C313.9,4.6,302.8,0,291.2,0h-245C34.6,0,23.4,4.6,15.2,12.8
		C7,21,2.4,32.1,2.4,43.8v472.5c0,11.6,4.6,22.7,12.8,30.9c8.2,8.2,19.3,12.8,30.9,12.8h245c11.6,0,22.7-4.6,30.9-12.8
		C330.3,539,334.9,527.9,334.9,516.2z M19.9,43.8c0-7,2.8-13.6,7.7-18.6s11.6-7.7,18.6-7.7h245c7,0,13.6,2.8,18.6,7.7
		s7.7,11.6,7.7,18.6v21.9H19.9L19.9,43.8z M19.9,83.1h297.5v354.4h-17.5V214.4c0-4.6-1.8-9.1-5.1-12.4s-7.7-5.1-12.4-5.1h-36.6
		L199.8,164c2.5-3.1,3.9-6.9,3.9-10.9v-35c0-4.6-1.8-9.1-5.1-12.4s-7.7-5.1-12.4-5.1h-35c-4.6,0-9.1,1.8-12.4,5.1s-5.1,7.7-5.1,12.4
		v35c0,4,1.4,7.8,3.9,10.9l-46.1,32.9H54.9c-4.6,0-9.1,1.8-12.4,5.1s-5.1,7.7-5.1,12.4v223.1H19.9L19.9,83.1z M247.4,306.2H89.9
		c-4.6,0-9.1,1.8-12.4,5.1s-5.1,7.7-5.1,12.4v113.8H54.9V258.1h227.5v179.4h-17.5V323.7c0-4.6-1.8-9.1-5.1-12.4
		S252,306.2,247.4,306.2z M247.4,323.7v113.8H89.9V323.7H247.4z M54.9,240.6v-26.2h227.5v26.2H54.9z M158.3,170.6H179l36.8,26.2
		h-94.1L158.3,170.6z M151.2,153.1v-35h35v35H151.2z M19.9,516.2V455h297.5v61.2c0,7-2.8,13.6-7.7,18.6s-11.6,7.7-18.6,7.7h-245
		c-7,0-13.6-2.8-18.6-7.7S19.9,523.2,19.9,516.2L19.9,516.2z"/>
	<path d="M216.8,35h-96.2c-4.8,0-8.8,3.9-8.8,8.8s3.9,8.8,8.8,8.8h96.2c4.8,0,8.8-3.9,8.8-8.8S221.6,35,216.8,35z"/>
	<path d="M199.3,472.5H138c-9.4,0-18,5-22.7,13.1c-4.7,8.1-4.7,18.1,0,26.2C120,520,128.6,525,138,525h61.2c9.4,0,18-5,22.7-13.1
		c4.7-8.1,4.7-18.1,0-26.2C217.3,477.5,208.7,472.5,199.3,472.5z M199.3,507.5H138c-4.8,0-8.8-3.9-8.8-8.8s3.9-8.8,8.8-8.8h61.2
		c4.8,0,8.8,3.9,8.8,8.8S204.1,507.5,199.3,507.5z"/>
	<path d="M260.5,43.8c0,4.8-3.9,8.8-8.8,8.8c-4.8,0-8.8-3.9-8.8-8.8s3.9-8.8,8.8-8.8C256.6,35,260.5,38.9,260.5,43.8"/>
	<path d="M94.3,43.8c0,4.8-3.9,8.8-8.8,8.8s-8.8-3.9-8.8-8.8s3.9-8.8,8.8-8.8S94.3,38.9,94.3,43.8"/>
	<path d="M149,275.6H83.3c-4.8,0-8.8,3.9-8.8,8.8s3.9,8.8,8.8,8.8H149c4.8,0,8.8-3.9,8.8-8.8S153.8,275.6,149,275.6z"/>
	<path d="M63.7,170.6h35c4.6,0,9.1-1.8,12.4-5.1s5.1-7.7,5.1-12.4v-35c0-4.6-1.8-9.1-5.1-12.4s-7.7-5.1-12.4-5.1h-35
		c-4.6,0-9.1,1.8-12.4,5.1s-5.1,7.7-5.1,12.4v35c0,4.6,1.8,9.1,5.1,12.4S59,170.6,63.7,170.6z M63.7,118.1h35v35h-35V118.1z"/>
	<path d="M238.7,170.6h35c4.6,0,9.1-1.8,12.4-5.1s5.1-7.7,5.1-12.4v-35c0-4.6-1.8-9.1-5.1-12.4s-7.7-5.1-12.4-5.1h-35
		c-4.6,0-9.1,1.8-12.4,5.1s-5.1,7.7-5.1,12.4v35c0,4.6,1.8,9.1,5.1,12.4S234,170.6,238.7,170.6z M238.7,118.1h35v35h-35V118.1z"/>
	
		<use xlink:href="#h"  width="13.6" height="16.5" x="-6.8" y="-8.3" transform="matrix(1 0 0 1 -103.471 617.664)" style="overflow:visible;"/>
	
		<use xlink:href="#c"  width="8.9" height="12.3" x="-4.4" y="-6.1" transform="matrix(1 0 0 1 -89.0095 619.4999)" style="overflow:visible;"/>
	
		<use xlink:href="#a"  width="12.8" height="12.6" x="-6.4" y="-6.3" transform="matrix(1 0 0 1 -77.1468 619.6563)" style="overflow:visible;"/>
	
		<use xlink:href="#m"  width="12.1" height="12.6" x="-6.1" y="-6.3" transform="matrix(1 0 0 1 -62.6738 619.6563)" style="overflow:visible;"/>
	
		<use xlink:href="#b"  width="9.7" height="15.4" x="-4.8" y="-7.7" transform="matrix(1 0 0 1 -49.791 617.9457)" style="overflow:visible;"/>
	<g>
		<defs>
			<rect id="SVGID_1_" x="-44.5" y="625.6" width="700" height="700"/>
		</defs>
		<clipPath id="SVGID_2_">
			<use xlink:href="#SVGID_1_"  style="overflow:visible;"/>
		</clipPath>
		<g style="clip-path:url(#SVGID_2_);">
			
				<use xlink:href="#a"  width="12.8" height="12.6" x="-6.4" y="-6.3" transform="matrix(1 0 0 1 -37.0921 619.6563)" style="overflow:visible;"/>
		</g>
	</g>
	
		<use xlink:href="#l"  width="12.8" height="16.9" x="-6.4" y="-8.5" transform="matrix(1 0 0 1 -22.209 617.4686)" style="overflow:visible;"/>
	
		<use xlink:href="#k"  width="12.8" height="16.9" x="-6.4" y="-8.5" transform="matrix(1 0 0 1 1.9199 617.4686)" style="overflow:visible;"/>
	
		<use xlink:href="#j"  width="13.6" height="16.7" x="-6.8" y="-8.3" transform="matrix(1 0 0 1 16.3808 621.9999)" style="overflow:visible;"/>
	
		<use xlink:href="#i"  width="22.8" height="16" x="-11.4" y="-8" transform="matrix(1 0 0 1 43.2402 617.6485)" style="overflow:visible;"/>
	
		<use xlink:href="#g"  width="11.3" height="16" x="-5.7" y="-8" transform="matrix(1 0 0 1 63.002 617.6486)" style="overflow:visible;"/>
	
		<use xlink:href="#z"  width="13.1" height="16" x="-6.6" y="-8" transform="matrix(1 0 0 1 78.8456 617.6485)" style="overflow:visible;"/>
	
		<use xlink:href="#y"  width="14.7" height="16" x="-7.3" y="-8" transform="matrix(1 0 0 1 94.3928 617.6487)" style="overflow:visible;"/>
	<g>
		<defs>
			<rect id="SVGID_3_" x="101.9" y="625.6" width="700" height="700"/>
		</defs>
		<clipPath id="SVGID_4_">
			<use xlink:href="#SVGID_3_"  style="overflow:visible;"/>
		</clipPath>
		<g style="clip-path:url(#SVGID_4_);">
			
				<use xlink:href="#g"  width="11.3" height="16" x="-5.7" y="-8" transform="matrix(1 0 0 1 109.5411 617.6486)" style="overflow:visible;"/>
		</g>
	</g>
	<g>
		<defs>
			<rect id="SVGID_5_" x="116.8" y="625.6" width="700" height="700"/>
		</defs>
		<clipPath id="SVGID_6_">
			<use xlink:href="#SVGID_5_"  style="overflow:visible;"/>
		</clipPath>
		<g style="clip-path:url(#SVGID_6_);">
			
				<use xlink:href="#h"  width="13.6" height="16.5" x="-6.8" y="-8.3" transform="matrix(1 0 0 1 124.6774 617.664)" style="overflow:visible;"/>
		</g>
	</g>
	
		<use xlink:href="#x"  width="14.3" height="16" x="-7.1" y="-8" transform="matrix(1 0 0 1 142.0136 617.6485)" style="overflow:visible;"/>
	
		<use xlink:href="#w"  width="16.4" height="16.5" x="-8.2" y="-8.3" transform="matrix(1 0 0 1 160.4629 617.664)" style="overflow:visible;"/>
	
		<use xlink:href="#e"  width="13.1" height="16" x="-6.6" y="-8" transform="matrix(1 0 0 1 178.3378 617.6486)" style="overflow:visible;"/>
	
		<use xlink:href="#v"  width="12.6" height="16.5" x="-6.3" y="-8.3" transform="matrix(1 0 0 1 193.6538 617.6636)" style="overflow:visible;"/>
	
		<use xlink:href="#f"  width="11.3" height="16" x="-5.7" y="-8" transform="matrix(1 0 0 1 216.8418 617.6487)" style="overflow:visible;"/>
	<g>
		<defs>
			<rect id="SVGID_7_" x="223.1" y="625.6" width="700" height="700"/>
		</defs>
		<clipPath id="SVGID_8_">
			<use xlink:href="#SVGID_7_"  style="overflow:visible;"/>
		</clipPath>
		<g style="clip-path:url(#SVGID_8_);">
			
				<use xlink:href="#f"  width="11.3" height="16" x="-5.7" y="-8" transform="matrix(1 0 0 1 230.7832 617.6487)" style="overflow:visible;"/>
		</g>
	</g>
	<g>
		<defs>
			<rect id="SVGID_9_" x="237" y="625.6" width="700" height="700"/>
		</defs>
		<clipPath id="SVGID_10_">
			<use xlink:href="#SVGID_9_"  style="overflow:visible;"/>
		</clipPath>
		<g style="clip-path:url(#SVGID_10_);">
			
				<use xlink:href="#e"  width="13.1" height="16" x="-6.6" y="-8" transform="matrix(1 0 0 1 245.6191 617.6486)" style="overflow:visible;"/>
		</g>
	</g>
	
		<use xlink:href="#u"  width="9.3" height="16.6" x="-4.6" y="-8.3" transform="matrix(1 0 0 1 -106.2832 639.1875)" style="overflow:visible;"/>
	<g>
		<defs>
			<rect id="SVGID_11_" x="-101.8" y="647.5" width="700" height="700"/>
		</defs>
		<clipPath id="SVGID_12_">
			<use xlink:href="#SVGID_11_"  style="overflow:visible;"/>
		</clipPath>
		<g style="clip-path:url(#SVGID_12_);">
			
				<use xlink:href="#c"  width="8.9" height="12.3" x="-4.4" y="-6.1" transform="matrix(1 0 0 1 -95.5486 641.3749)" style="overflow:visible;"/>
		</g>
	</g>
	
		<use xlink:href="#d"  width="13.2" height="12.6" x="-6.6" y="-6.3" transform="matrix(1 0 0 1 -83.5255 641.5312)" style="overflow:visible;"/>
	
		<use xlink:href="#t"  width="19.3" height="12.3" x="-9.6" y="-6.1" transform="matrix(1 0 0 1 -64.5762 641.3748)" style="overflow:visible;"/>
	<g>
		<defs>
			<rect id="SVGID_13_" x="-45.6" y="647.5" width="700" height="700"/>
		</defs>
		<clipPath id="SVGID_14_">
			<use xlink:href="#SVGID_13_"  style="overflow:visible;"/>
		</clipPath>
		<g style="clip-path:url(#SVGID_14_);">
			
				<use xlink:href="#b"  width="9.7" height="15.4" x="-4.8" y="-7.7" transform="matrix(1 0 0 1 -40.4863 639.8207)" style="overflow:visible;"/>
		</g>
	</g>
	
		<use xlink:href="#s"  width="12" height="16.6" x="-6" y="-8.3" transform="matrix(1 0 0 1 -27.2954 639.1875)" style="overflow:visible;"/>
	<g>
		<defs>
			<rect id="SVGID_15_" x="-19.6" y="647.5" width="700" height="700"/>
		</defs>
		<clipPath id="SVGID_16_">
			<use xlink:href="#SVGID_15_"  style="overflow:visible;"/>
		</clipPath>
		<g style="clip-path:url(#SVGID_16_);">
			
				<use xlink:href="#a"  width="12.8" height="12.6" x="-6.4" y="-6.3" transform="matrix(1 0 0 1 -12.2132 641.5313)" style="overflow:visible;"/>
		</g>
	</g>
	
		<use xlink:href="#r"  width="14.3" height="16" x="-7.1" y="-8" transform="matrix(1 0 0 1 12.0331 639.5235)" style="overflow:visible;"/>
	<g>
		<defs>
			<rect id="SVGID_17_" x="21.2" y="647.5" width="700" height="700"/>
		</defs>
		<clipPath id="SVGID_18_">
			<use xlink:href="#SVGID_17_"  style="overflow:visible;"/>
		</clipPath>
		<g style="clip-path:url(#SVGID_18_);">
			
				<use xlink:href="#d"  width="13.2" height="12.6" x="-6.6" y="-6.3" transform="matrix(1 0 0 1 28.7011 641.5312)" style="overflow:visible;"/>
		</g>
	</g>
	
		<use xlink:href="#q"  width="12" height="12.3" x="-6" y="-6.1" transform="matrix(1 0 0 1 43.9316 641.6721)" style="overflow:visible;"/>
	
		<use xlink:href="#p"  width="12" height="12.3" x="-6" y="-6.1" transform="matrix(1 0 0 1 59.6382 641.3749)" style="overflow:visible;"/>
	<g>
		<defs>
			<rect id="SVGID_19_" x="75" y="647.5" width="700" height="700"/>
		</defs>
		<clipPath id="SVGID_20_">
			<use xlink:href="#SVGID_19_"  style="overflow:visible;"/>
		</clipPath>
		<g style="clip-path:url(#SVGID_20_);">
			
				<use xlink:href="#e"  width="13.1" height="16" x="-6.6" y="-8" transform="matrix(1 0 0 1 83.5527 639.5236)" style="overflow:visible;"/>
		</g>
	</g>
	<g>
		<defs>
			<rect id="SVGID_21_" x="91" y="647.5" width="700" height="700"/>
		</defs>
		<clipPath id="SVGID_22_">
			<use xlink:href="#SVGID_21_"  style="overflow:visible;"/>
		</clipPath>
		<g style="clip-path:url(#SVGID_22_);">
			
				<use xlink:href="#c"  width="8.9" height="12.3" x="-4.4" y="-6.1" transform="matrix(1 0 0 1 97.2913 641.3749)" style="overflow:visible;"/>
		</g>
	</g>
	<g>
		<defs>
			<rect id="SVGID_23_" x="101.8" y="647.5" width="700" height="700"/>
		</defs>
		<clipPath id="SVGID_24_">
			<use xlink:href="#SVGID_23_"  style="overflow:visible;"/>
		</clipPath>
		<g style="clip-path:url(#SVGID_24_);">
			
				<use xlink:href="#d"  width="13.2" height="12.6" x="-6.6" y="-6.3" transform="matrix(1 0 0 1 109.3104 641.5312)" style="overflow:visible;"/>
		</g>
	</g>
	
		<use xlink:href="#o"  width="6.4" height="21.3" x="-3.2" y="-10.7" transform="matrix(1 0 0 1 119.295 641.5466)" style="overflow:visible;"/>
	<g>
		<defs>
			<rect id="SVGID_25_" x="124.3" y="647.5" width="700" height="700"/>
		</defs>
		<clipPath id="SVGID_26_">
			<use xlink:href="#SVGID_25_"  style="overflow:visible;"/>
		</clipPath>
		<g style="clip-path:url(#SVGID_26_);">
			
				<use xlink:href="#a"  width="12.8" height="12.6" x="-6.4" y="-6.3" transform="matrix(1 0 0 1 131.6813 641.5313)" style="overflow:visible;"/>
		</g>
	</g>
	
		<use xlink:href="#n"  width="10.6" height="12.6" x="-5.3" y="-6.3" transform="matrix(1 0 0 1 145.3769 641.5311)" style="overflow:visible;"/>
	<g>
		<defs>
			<rect id="SVGID_27_" x="152.1" y="647.5" width="700" height="700"/>
		</defs>
		<clipPath id="SVGID_28_">
			<use xlink:href="#SVGID_27_"  style="overflow:visible;"/>
		</clipPath>
		<g style="clip-path:url(#SVGID_28_);">
			
				<use xlink:href="#b"  width="9.7" height="15.4" x="-4.8" y="-7.7" transform="matrix(1 0 0 1 157.2441 639.8207)" style="overflow:visible;"/>
		</g>
	</g>
</g>
</svg>
