<?xml version="1.0" encoding="utf-8"?>
<!-- Generator: Adobe Illustrator 25.1.0, SVG Export Plug-In . SVG Version: 6.00 Build 0)  -->
<svg version="1.1" id="Layer_1" xmlns="http://www.w3.org/2000/svg" xmlns:xlink="http://www.w3.org/1999/xlink" x="0px" y="0px"
	 viewBox="0 0 100 100" style="enable-background:new 0 0 100 100;" xml:space="preserve">
<g>
	<path d="M50.5,39.8c-1.9,0-3.8,0.5-5.4,1.6c-2.3,1.4-3.9,3.7-4.5,6.3c-0.6,2.6-0.1,5.3,1.3,7.6c1.9,2.9,5,4.7,8.5,4.7
		c1.9,0,3.8-0.5,5.4-1.6c4.7-3,6.1-9.2,3.2-13.9C57.1,41.6,54,39.8,50.5,39.8z M54.5,56.3c-1.2,0.8-2.6,1.2-4,1.2
		c-2.6,0-5-1.3-6.4-3.5c-1.1-1.7-1.4-3.7-1-5.7c0.4-2,1.6-3.7,3.4-4.7c1.2-0.8,2.6-1.2,4-1.2c2.6,0,5,1.3,6.4,3.5
		C59.1,49.4,58.1,54.1,54.5,56.3z"/>
	<path d="M68.1,77.8l1.3,2.1C79.7,73.4,85.9,62.2,86,50l-2.5,0C83.4,61.4,77.7,71.8,68.1,77.8z"/>
	<path d="M32.9,22l-1.3-2.1C20.7,26.7,14.3,38.9,15,51.8l2.5-0.1C16.9,39.7,22.8,28.3,32.9,22z"/>
	<path d="M91.2,36.9l-0.4-1.2l-16.4,5l0.4,1.2c1.4,4.3,1.6,9,0.6,13.4c-0.2,0.9-0.4,1.7-0.7,2.6l-7.1-4.2c1-4.5,0.2-9.2-2.3-13.2
		c-3.2-5.1-8.8-8.2-14.9-8.2c-3.3,0-6.5,0.9-9.3,2.7c-0.8,0.5-1.5,1-2.2,1.6l-7.1-4.2c1.5-1.6,3.2-3.1,5.1-4.3
		c2.6-1.6,5.4-2.8,8.4-3.4l1.2-0.3l-1-5.3c12.2-1.9,24.6,3.6,31.2,14.1l2.1-1.3c-7.2-11.3-20.6-17.3-33.7-15.2l-0.6-2.9
		c14.3-2.3,29,4.2,36.8,16.5c0.4,0.6,0.8,1.3,1.1,1.9l2.2-1.2c-0.4-0.7-0.8-1.4-1.2-2c-8.3-13.2-24-20.2-39.4-17.7l-0.7-3.7
		l-1.2,0.3c-5.1,1-9.9,3-14.3,5.7C18.2,19.7,11.5,29.2,9,40.3c-1.7,7.6-1.3,15.5,1.1,22.8l0.4,1.2l16.4-5l-0.4-1.2
		c-1.6-4.5-1.8-9.3-0.8-14c0.2-0.7,0.4-1.5,0.6-2.2l7,4.2c-1,4.5-0.2,9.2,2.3,13.2c3.2,5.1,8.8,8.2,14.9,8.2c3.3,0,6.5-0.9,9.3-2.7
		c0.8-0.5,1.5-1,2.2-1.6l7,4.2c-1.4,1.5-3.1,2.8-4.9,4c-2.7,1.7-5.7,2.9-8.9,3.5L54,75l1.1,5.6C42.9,82.4,30.8,77,24.2,66.4
		l-2.1,1.3c6.3,9.9,16.9,15.7,28.3,15.7c1.7,0,3.5-0.1,5.2-0.4l0.6,2.9c-14.5,2.3-28.7-4.1-36.5-16.6l-2.1,1.3
		c7.3,11.5,19.7,18.2,32.9,18.2c2.1,0,4.2-0.2,6.2-0.5l0.6,3.4l1.2-0.2c5.3-1,10.3-3,14.8-5.8c9.6-6.1,16.3-15.5,18.8-26.6
		C93.8,51.7,93.5,44.1,91.2,36.9z M12.1,61.2c-2-6.6-2.2-13.6-0.7-20.3c2.4-10.4,8.7-19.3,17.7-25.1c3.8-2.4,7.9-4.1,12.2-5.1
		l2.3,11.9c-2.8,0.7-5.5,1.9-8,3.5C29.3,30,25,36.2,23.3,43.5c-1.1,4.7-0.9,9.5,0.5,14.1L12.1,61.2z M30.2,34.4l6.9,4.1
		c-1.3,1.5-2.3,3.3-3,5.1l-6.9-4.1C28,37.7,29,36,30.2,34.4z M58.5,62.6c-2.4,1.5-5.2,2.3-8,2.3c-5.2,0-10-2.6-12.7-7
		c-2.1-3.4-2.8-7.4-1.9-11.3s3.2-7.3,6.7-9.4c2.4-1.5,5.2-2.3,8-2.3c5.2,0,10,2.6,12.7,7c2.1,3.4,2.8,7.4,1.9,11.3
		C64.3,57.1,61.9,60.5,58.5,62.6z M63.8,61.3c1.3-1.5,2.3-3.3,3-5.1l6.9,4.1c-0.8,1.8-1.9,3.5-3.1,5.1L63.8,61.3z M89.7,58.6
		C87.3,69,81,77.9,72,83.6c-3.9,2.5-8.2,4.2-12.7,5.2L57,77c3-0.7,5.9-1.9,8.5-3.6c6.3-4,10.7-10.2,12.4-17.5
		c1-4.5,0.9-9.1-0.3-13.5l11.6-3.5C91,45.2,91.2,52,89.7,58.6z"/>
</g>
<text transform="matrix(1 0 0 1 0 115)" style="display:none;enable-background:new    ; font-family:'Arial-BoldMT'; font-size:5px;">Created by Creative Mania</text>
<text transform="matrix(1 0 0 1 0 120)" style="display:none;enable-background:new    ; font-family:'Arial-BoldMT'; font-size:5px;">from the Noun Project</text>
</svg>
